<?xml version="1.0" encoding="UTF-8" standalone="no"?>
<!-- Created with Inkscape (http://www.inkscape.org/) -->

<svg
   xmlns:dc="http://purl.org/dc/elements/1.1/"
   xmlns:cc="http://creativecommons.org/ns#"
   xmlns:rdf="http://www.w3.org/1999/02/22-rdf-syntax-ns#"
   xmlns:svg="http://www.w3.org/2000/svg"
   xmlns="http://www.w3.org/2000/svg"
   xmlns:sodipodi="http://sodipodi.sourceforge.net/DTD/sodipodi-0.dtd"
   xmlns:inkscape="http://www.inkscape.org/namespaces/inkscape"
   width="210mm"
   height="297mm"
   viewBox="0 0 744.09448819 1052.3622047"
   id="svg22021"
   version="1.1"
   inkscape:version="0.91 r13725"
   sodipodi:docname="custom-tiles.svg">
  <defs
     id="defs22023" />
  <sodipodi:namedview
     id="base"
     pagecolor="#ffffff"
     bordercolor="#666666"
     borderopacity="1.0"
     inkscape:pageopacity="0.0"
     inkscape:pageshadow="2"
     inkscape:zoom="1.979899"
     inkscape:cx="409.29779"
     inkscape:cy="759.73614"
     inkscape:document-units="px"
     inkscape:current-layer="layer1"
     showgrid="false"
     inkscape:window-width="2498"
     inkscape:window-height="1577"
     inkscape:window-x="54"
     inkscape:window-y="176"
     inkscape:window-maximized="1" />
  <metadata
     id="metadata22026">
    <rdf:RDF>
      <cc:Work
         rdf:about="">
        <dc:format>image/svg+xml</dc:format>
        <dc:type
           rdf:resource="http://purl.org/dc/dcmitype/StillImage" />
        <dc:title></dc:title>
      </cc:Work>
    </rdf:RDF>
  </metadata>
  <g
     inkscape:label="Layer 1"
     inkscape:groupmode="layer"
     id="layer1">
    <path
       style="fill:none;fill-opacity:1;stroke:#000000;stroke-width:0.1;stroke-linecap:round;stroke-linejoin:round;stroke-miterlimit:4;stroke-dasharray:none;stroke-opacity:1"
       d="m 25.719914,20.861804 c -2.48118,-5.3e-4 -4.49271,2.011 -4.49218,4.49218 l 0,0.0156 -0.002,0 0,70.65821 3.51758,0 0,10.656256 3.54297,0 19.625,0 6.654305,0 19.6289,0 3.54298,0 0,-10.656256 3.51757,0 0,-70.65821 -0.006,0 0,-0.01 c -5.6e-4,-2.48042 -2.01177,-4.49076 -4.4922,-4.49023 -20.82155,0.0386 -28.940795,-3.9e-4 -51.037215,-0.008 z"
       id="rect11868-2-5-1-6-9-29"
       inkscape:connector-curvature="0"
       sodipodi:nodetypes="cccccccccccccccccccc" />
    <path
       style="fill:none;fill-opacity:1;stroke:#000000;stroke-width:0.1;stroke-linecap:round;stroke-linejoin:round;stroke-miterlimit:4;stroke-dasharray:none;stroke-opacity:1"
       d="m 93.99216,20.861805 c -2.48118,-5.3e-4 -4.49271,2.011 -4.49218,4.49218 l 0,0.0156 -0.002,0 0,70.658206 3.51758,0 0,10.656249 3.542965,0 19.624995,0 6.65431,0 19.6289,0 3.54298,0 0,-10.656249 3.51757,0 0,-70.658206 -0.006,0 0,-0.01 c -5.6e-4,-2.48042 -2.01177,-4.49076 -4.4922,-4.49023 -20.82155,0.0386 -28.9408,-3.9e-4 -51.03721,-0.008 z"
       id="rect11868-2-5-1-6-9-29-4"
       inkscape:connector-curvature="0"
       sodipodi:nodetypes="cccccccccccccccccccc" />
    <path
       style="fill:none;fill-opacity:1;stroke:#000000;stroke-width:0.1;stroke-linecap:round;stroke-linejoin:round;stroke-miterlimit:4;stroke-dasharray:none;stroke-opacity:1"
       d="m 162.26441,20.861804 c -2.48118,-5.3e-4 -4.49271,2.011 -4.49218,4.49218 l 0,0.0156 -0.002,0 0,70.658213 3.51758,0 0,10.656243 3.54297,0 19.625,0 6.65431,0 19.6289,0 3.54298,0 0,-10.656243 3.51757,0 0,-70.658213 -0.006,0 0,-0.01 c -5.6e-4,-2.48042 -2.01177,-4.49076 -4.4922,-4.49023 -20.82155,0.0386 -28.9408,-3.9e-4 -51.03722,-0.008 z"
       id="rect11868-2-5-1-6-9-29-9"
       inkscape:connector-curvature="0"
       sodipodi:nodetypes="cccccccccccccccccccc" />
    <path
       style="fill:none;fill-opacity:1;stroke:#000000;stroke-width:0.1;stroke-linecap:round;stroke-linejoin:round;stroke-miterlimit:4;stroke-dasharray:none;stroke-opacity:1"
       d="m 230.53665,20.861807 c -2.48118,-5.3e-4 -4.49271,2.011 -4.49218,4.49218 l 0,0.0156 -0.002,0 0,70.658209 3.51758,0 0,10.656244 3.54297,0 19.625,0 6.6543,0 19.6289,0 3.54298,0 0,-10.656244 3.51757,0 0,-70.658209 -0.006,0 0,-0.01 c -5.6e-4,-2.48042 -2.01177,-4.49076 -4.4922,-4.49023 -20.82155,0.0386 -28.94079,-3.9e-4 -51.03721,-0.008 z"
       id="rect11868-2-5-1-6-9-29-5"
       inkscape:connector-curvature="0"
       sodipodi:nodetypes="cccccccccccccccccccc" />
    <path
       style="fill:none;fill-opacity:1;stroke:#000000;stroke-width:0.1;stroke-linecap:round;stroke-linejoin:round;stroke-miterlimit:4;stroke-dasharray:none;stroke-opacity:1"
       d="m 298.80891,20.861804 c -2.48118,-5.3e-4 -4.49271,2.011 -4.49218,4.49218 l 0,0.0156 -0.002,0 0,70.65821 3.51758,0 0,10.656246 3.54297,0 19.625,0 6.65431,0 19.6289,0 3.54298,0 0,-10.656246 3.51757,0 0,-70.65821 -0.006,0 0,-0.01 c -5.6e-4,-2.48042 -2.01177,-4.49076 -4.4922,-4.49023 -20.82155,0.0386 -28.9408,-3.9e-4 -51.03722,-0.008 z"
       id="rect11868-2-5-1-6-9-29-7"
       inkscape:connector-curvature="0"
       sodipodi:nodetypes="cccccccccccccccccccc" />
    <path
       style="fill:none;fill-opacity:1;stroke:#000000;stroke-width:0.1;stroke-linecap:round;stroke-linejoin:round;stroke-miterlimit:4;stroke-dasharray:none;stroke-opacity:1"
       d="m 367.08117,20.861806 c -2.48118,-5.3e-4 -4.49271,2.011 -4.49218,4.49218 l 0,0.0156 -0.002,0 0,70.658206 3.51758,0 0,10.656248 3.54297,0 19.625,0 6.6543,0 19.6289,0 3.54298,0 0,-10.656248 3.51757,0 0,-70.658206 -0.006,0 0,-0.01 c -5.6e-4,-2.48042 -2.01177,-4.49076 -4.4922,-4.49023 -20.82155,0.0386 -28.94079,-3.9e-4 -51.03721,-0.008 z"
       id="rect11868-2-5-1-6-9-29-99"
       inkscape:connector-curvature="0"
       sodipodi:nodetypes="cccccccccccccccccccc" />
    <path
       style="fill:none;fill-opacity:1;stroke:#000000;stroke-width:0.1;stroke-linecap:round;stroke-linejoin:round;stroke-miterlimit:4;stroke-dasharray:none;stroke-opacity:1"
       d="m 435.35341,20.861804 c -2.48118,-5.3e-4 -4.49271,2.011 -4.49218,4.49218 l 0,0.0156 -0.002,0 0,70.658209 3.51758,0 0,10.656247 3.54297,0 19.625,0 6.6543,0 19.6289,0 3.54298,0 0,-10.656247 3.51757,0 0,-70.658209 -0.006,0 0,-0.01 c -5.6e-4,-2.48042 -2.01177,-4.49076 -4.4922,-4.49023 -20.82155,0.0386 -28.94079,-3.9e-4 -51.03721,-0.008 z"
       id="rect11868-2-5-1-6-9-29-0"
       inkscape:connector-curvature="0"
       sodipodi:nodetypes="cccccccccccccccccccc" />
    <path
       style="fill:none;fill-opacity:1;stroke:#000000;stroke-width:0.1;stroke-linecap:round;stroke-linejoin:round;stroke-miterlimit:4;stroke-dasharray:none;stroke-opacity:1"
       d="m 503.62566,20.861803 c -2.48118,-5.3e-4 -4.49271,2.011 -4.49218,4.49218 l 0,0.0156 -0.002,0 0,70.658212 3.51758,0 0,10.656255 3.54297,0 19.625,0 6.6543,0 19.6289,0 3.54298,0 0,-10.656255 3.51757,0 0,-70.658212 -0.006,0 0,-0.01 c -5.6e-4,-2.48042 -2.01177,-4.49076 -4.4922,-4.49023 -20.82155,0.0386 -28.94079,-3.9e-4 -51.03721,-0.008 z"
       id="rect11868-2-5-1-6-9-29-1"
       inkscape:connector-curvature="0"
       sodipodi:nodetypes="cccccccccccccccccccc" />
    <path
       style="fill:none;fill-opacity:1;stroke:#000000;stroke-width:0.1;stroke-linecap:round;stroke-linejoin:round;stroke-miterlimit:4;stroke-dasharray:none;stroke-opacity:1"
       d="m 571.89787,20.861806 c -2.48118,-5.3e-4 -4.49271,2.011 -4.49218,4.49218 l 0,0.0156 -0.002,0 0,70.658207 3.51758,0 0,10.656247 3.54297,0 19.625,0 6.65431,0 19.6289,0 3.54298,0 0,-10.656247 3.51757,0 0,-70.658207 -0.006,0 0,-0.01 c -5.6e-4,-2.48042 -2.01177,-4.49076 -4.4922,-4.49023 -20.82155,0.0386 -28.9408,-3.9e-4 -51.03722,-0.008 z"
       id="rect11868-2-5-1-6-9-29-45"
       inkscape:connector-curvature="0"
       sodipodi:nodetypes="cccccccccccccccccccc" />
    <path
       style="fill:none;fill-opacity:1;stroke:#000000;stroke-width:0.1;stroke-linecap:round;stroke-linejoin:round;stroke-miterlimit:4;stroke-dasharray:none;stroke-opacity:1"
       d="m 640.17005,20.861808 c -2.48118,-5.3e-4 -4.49271,2.011 -4.49218,4.49218 l 0,0.0156 -0.002,0 0,70.658204 3.51758,0 0,10.656248 3.54297,0 19.625,0 6.65431,0 19.6289,0 3.54298,0 0,-10.656248 3.51757,0 0,-70.658204 -0.006,0 0,-0.01 c -5.6e-4,-2.48042 -2.01177,-4.49076 -4.4922,-4.49023 -20.82155,0.0386 -28.9408,-3.9e-4 -51.03722,-0.008 z"
       id="rect11868-2-5-1-6-9-29-6"
       inkscape:connector-curvature="0"
       sodipodi:nodetypes="cccccccccccccccccccc" />
  </g>
</svg>
