<?xml version="1.0" encoding="UTF-8" standalone="no"?>
<!-- Created with Inkscape (http://www.inkscape.org/) -->

<svg
   xmlns:dc="http://purl.org/dc/elements/1.1/"
   xmlns:cc="http://creativecommons.org/ns#"
   xmlns:rdf="http://www.w3.org/1999/02/22-rdf-syntax-ns#"
   xmlns:svg="http://www.w3.org/2000/svg"
   xmlns="http://www.w3.org/2000/svg"
   xmlns:sodipodi="http://sodipodi.sourceforge.net/DTD/sodipodi-0.dtd"
   xmlns:inkscape="http://www.inkscape.org/namespaces/inkscape"
   width="210mm"
   height="297mm"
   viewBox="0 0 744.09448819 1052.3622047"
   id="svg6029"
   version="1.1"
   inkscape:version="0.91 r13725"
   sodipodi:docname="param-tiles.svg">
  <defs
     id="defs6031" />
  <sodipodi:namedview
     id="base"
     pagecolor="#ffffff"
     bordercolor="#666666"
     borderopacity="1.0"
     inkscape:pageopacity="0.0"
     inkscape:pageshadow="2"
     inkscape:zoom="1.979899"
     inkscape:cx="302.19995"
     inkscape:cy="807.30705"
     inkscape:document-units="px"
     inkscape:current-layer="layer1"
     showgrid="false"
     inkscape:window-width="2498"
     inkscape:window-height="1577"
     inkscape:window-x="54"
     inkscape:window-y="176"
     inkscape:window-maximized="1" />
  <metadata
     id="metadata6034">
    <rdf:RDF>
      <cc:Work
         rdf:about="">
        <dc:format>image/svg+xml</dc:format>
        <dc:type
           rdf:resource="http://purl.org/dc/dcmitype/StillImage" />
        <dc:title />
      </cc:Work>
    </rdf:RDF>
  </metadata>
  <g
     inkscape:label="Layer 1"
     inkscape:groupmode="layer"
     id="layer1">
    <path
       style="fill:none;fill-opacity:1;stroke:#000000;stroke-width:0.1;stroke-linecap:round;stroke-linejoin:round;stroke-miterlimit:4;stroke-dasharray:none;stroke-opacity:1"
       d="m 27.373832,6.611616 c -11.657201,2.6e-4 -21.107167,9.45022 -21.10743,21.10742 4.69e-4,0.50898 0.01935,1.01778 0.0566,1.52539 l 0,69.132804 3.470607,0 0,10.63478 35.02539,0 0,-10.63478 3.607523,0 0,-69.566404 c 0.02766,-0.36339 0.0459,-0.72744 0.0547,-1.09179 -2.63e-4,-11.65719 -9.450223,-21.10715 -21.10742,-21.10742 z"
       id="rect12526"
       inkscape:connector-curvature="0"
       sodipodi:nodetypes="ccccccccccccc" />
    <path
       style="fill:none;fill-opacity:1;stroke:#000000;stroke-width:0.1;stroke-linecap:round;stroke-linejoin:round;stroke-miterlimit:4;stroke-dasharray:none;stroke-opacity:1"
       d="m 76.387693,6.611616 c -11.6572,2.6e-4 -21.10717,9.45022 -21.10743,21.10742 4.7e-4,0.50898 0.0194,1.01778 0.0566,1.52539 l 0,69.132804 3.47061,0 0,10.63478 35.02539,0 0,-10.63478 3.607517,0 0,-69.566404 c 0.0277,-0.36339 0.0459,-0.72745 0.0547,-1.09179 -2.6e-4,-11.65719 -9.450217,-21.10715 -21.107417,-21.10742 z"
       id="rect12526-9"
       inkscape:connector-curvature="0"
       sodipodi:nodetypes="ccccccccccccc" />
    <path
       style="fill:none;fill-opacity:1;stroke:#000000;stroke-width:0.1;stroke-linecap:round;stroke-linejoin:round;stroke-miterlimit:4;stroke-dasharray:none;stroke-opacity:1"
       d="m 174.41542,6.611616 c -11.6572,2.6e-4 -21.10717,9.45022 -21.10743,21.10742 4.7e-4,0.50898 0.0194,1.01778 0.0566,1.52539 l 0,69.132804 3.4706,0 0,10.63478 35.02539,0 0,-10.63478 3.60753,0 0,-69.566404 c 0.0277,-0.36339 0.0459,-0.72745 0.0547,-1.09179 -2.7e-4,-11.65719 -9.45023,-21.10715 -21.10742,-21.10742 z"
       id="rect12526-8"
       inkscape:connector-curvature="0"
       sodipodi:nodetypes="ccccccccccccc" />
    <path
       style="fill:none;fill-opacity:1;stroke:#000000;stroke-width:0.1;stroke-linecap:round;stroke-linejoin:round;stroke-miterlimit:4;stroke-dasharray:none;stroke-opacity:1"
       d="m 125.40156,6.611616 c -11.6572,2.6e-4 -21.10717,9.45022 -21.10743,21.10742 4.7e-4,0.50898 0.0194,1.01778 0.0566,1.52539 l 0,69.132804 3.4706,0 0,10.63478 35.02538,0 0,-10.63478 3.60753,0 0,-69.566404 c 0.0277,-0.36339 0.0459,-0.72745 0.0547,-1.09179 -2.7e-4,-11.65719 -9.45023,-21.10715 -21.10741,-21.10742 z"
       id="rect12526-7"
       inkscape:connector-curvature="0"
       sodipodi:nodetypes="ccccccccccccc" />
    <path
       style="fill:none;fill-opacity:1;stroke:#000000;stroke-width:0.1;stroke-linecap:round;stroke-linejoin:round;stroke-miterlimit:4;stroke-dasharray:none;stroke-opacity:1"
       d="m 468.4986,6.611616 c -11.6572,2.5e-4 -21.10717,9.45022 -21.10743,21.10742 4.7e-4,0.50898 0.0194,1.01777 0.0566,1.52539 l 0,69.132794 3.4706,0 0,10.63479 35.02539,0 0,-10.63479 3.60753,0 0,-69.566394 c 0.0277,-0.3634 0.0459,-0.72745 0.0547,-1.09179 -2.7e-4,-11.6572 -9.45023,-21.10716 -21.10742,-21.10742 z"
       id="rect12526-5"
       inkscape:connector-curvature="0"
       sodipodi:nodetypes="ccccccccccccc" />
    <path
       style="fill:none;fill-opacity:1;stroke:#000000;stroke-width:0.1;stroke-linecap:round;stroke-linejoin:round;stroke-miterlimit:4;stroke-dasharray:none;stroke-opacity:1"
       d="m 419.48473,6.611616 c -11.6572,2.5e-4 -21.10717,9.45022 -21.10743,21.10742 4.7e-4,0.50898 0.0194,1.01777 0.0566,1.52539 l 0,69.132794 3.4706,0 0,10.63479 35.02539,0 0,-10.63479 3.60753,0 0,-69.566394 c 0.0277,-0.3634 0.0459,-0.72745 0.0547,-1.09179 -2.7e-4,-11.6572 -9.45023,-21.10716 -21.10742,-21.10742 z"
       id="rect12526-3"
       inkscape:connector-curvature="0"
       sodipodi:nodetypes="ccccccccccccc" />
    <path
       style="fill:none;fill-opacity:1;stroke:#000000;stroke-width:0.1;stroke-linecap:round;stroke-linejoin:round;stroke-miterlimit:4;stroke-dasharray:none;stroke-opacity:1"
       d="m 370.47089,6.611616 c -11.6572,2.5e-4 -21.10717,9.45022 -21.10743,21.10742 4.7e-4,0.50898 0.0194,1.01777 0.0566,1.52539 l 0,69.132794 3.4706,0 0,10.63479 35.02539,0 0,-10.63479 3.60753,0 0,-69.566394 c 0.0277,-0.3634 0.0459,-0.72745 0.0547,-1.09179 -2.7e-4,-11.6572 -9.45023,-21.10716 -21.10742,-21.10742 z"
       id="rect12526-79"
       inkscape:connector-curvature="0"
       sodipodi:nodetypes="ccccccccccccc" />
    <path
       style="fill:none;fill-opacity:1;stroke:#000000;stroke-width:0.1;stroke-linecap:round;stroke-linejoin:round;stroke-miterlimit:4;stroke-dasharray:none;stroke-opacity:1"
       d="m 321.45702,6.611616 c -11.6572,2.5e-4 -21.10717,9.45022 -21.10743,21.10742 4.7e-4,0.50898 0.0194,1.01777 0.0566,1.52539 l 0,69.132794 3.4706,0 0,10.63479 35.02539,0 0,-10.63479 3.60753,0 0,-69.566394 c 0.0277,-0.3634 0.0459,-0.72745 0.0547,-1.09179 -2.7e-4,-11.6572 -9.45023,-21.10716 -21.10742,-21.10742 z"
       id="rect12526-85"
       inkscape:connector-curvature="0"
       sodipodi:nodetypes="ccccccccccccc" />
    <path
       style="fill:none;fill-opacity:1;stroke:#000000;stroke-width:0.1;stroke-linecap:round;stroke-linejoin:round;stroke-miterlimit:4;stroke-dasharray:none;stroke-opacity:1"
       d="m 272.44314,6.611616 c -11.6572,2.5e-4 -21.10717,9.45022 -21.10743,21.10742 4.7e-4,0.50898 0.0194,1.01777 0.0566,1.52539 l 0,69.132794 3.4706,0 0,10.63479 35.02539,0 0,-10.63479 3.60753,0 0,-69.566394 c 0.0277,-0.3634 0.0459,-0.72745 0.0547,-1.09179 -2.7e-4,-11.6572 -9.45023,-21.10716 -21.10742,-21.10742 z"
       id="rect12526-1"
       inkscape:connector-curvature="0"
       sodipodi:nodetypes="ccccccccccccc" />
    <path
       style="fill:none;fill-opacity:1;stroke:#000000;stroke-width:0.1;stroke-linecap:round;stroke-linejoin:round;stroke-miterlimit:4;stroke-dasharray:none;stroke-opacity:1"
       d="m 223.42928,6.611616 c -11.6572,2.5e-4 -21.10717,9.45022 -21.10743,21.10742 4.7e-4,0.50898 0.0194,1.01777 0.0566,1.52539 l 0,69.132794 3.4706,0 0,10.63479 35.02539,0 0,-10.63479 3.60753,0 0,-69.566394 c 0.0277,-0.3634 0.0459,-0.72745 0.0547,-1.09179 -2.7e-4,-11.6572 -9.45023,-21.10716 -21.10742,-21.10742 z"
       id="rect12526-6"
       inkscape:connector-curvature="0"
       sodipodi:nodetypes="ccccccccccccc" />
    <path
       style="fill:none;fill-opacity:1;stroke:#000000;stroke-width:0.1;stroke-linecap:round;stroke-linejoin:round;stroke-miterlimit:4;stroke-dasharray:none;stroke-opacity:1"
       d="m 664.55411,6.6116169 c -11.6572,2.5e-4 -21.10717,9.4502201 -21.10743,21.1074201 4.7e-4,0.50898 0.0194,1.01777 0.0566,1.52539 l 0,69.132793 3.4706,0 0,10.63478 35.02539,0 0,-10.63478 3.60753,0 0,-69.566393 c 0.0277,-0.3634 0.0459,-0.72745 0.0547,-1.09179 -2.7e-4,-11.6572 -9.45023,-21.1071601 -21.10742,-21.1074201 z"
       id="rect12526-3-1"
       inkscape:connector-curvature="0"
       sodipodi:nodetypes="ccccccccccccc" />
    <path
       style="fill:none;fill-opacity:1;stroke:#000000;stroke-width:0.1;stroke-linecap:round;stroke-linejoin:round;stroke-miterlimit:4;stroke-dasharray:none;stroke-opacity:1"
       d="m 615.54024,6.6116169 c -11.6572,2.5e-4 -21.10717,9.4502201 -21.10743,21.1074201 4.7e-4,0.50898 0.0194,1.01777 0.0566,1.52539 l 0,69.132793 3.4706,0 0,10.63478 35.02539,0 0,-10.63478 3.60753,0 0,-69.566393 c 0.0277,-0.3634 0.0459,-0.72745 0.0547,-1.09179 -2.7e-4,-11.6572 -9.45023,-21.1071601 -21.10742,-21.1074201 z"
       id="rect12526-79-0"
       inkscape:connector-curvature="0"
       sodipodi:nodetypes="ccccccccccccc" />
    <path
       style="fill:none;fill-opacity:1;stroke:#000000;stroke-width:0.1;stroke-linecap:round;stroke-linejoin:round;stroke-miterlimit:4;stroke-dasharray:none;stroke-opacity:1"
       d="m 566.52631,6.6116169 c -11.6572,2.5e-4 -21.10717,9.4502201 -21.10743,21.1074201 4.7e-4,0.50898 0.0194,1.01777 0.0566,1.52539 l 0,69.132793 3.4706,0 0,10.63478 35.02539,0 0,-10.63478 3.60753,0 0,-69.566393 c 0.0277,-0.3634 0.0459,-0.72745 0.0547,-1.09179 -2.7e-4,-11.6572 -9.45023,-21.1071601 -21.10742,-21.1074201 z"
       id="rect12526-85-2"
       inkscape:connector-curvature="0"
       sodipodi:nodetypes="ccccccccccccc" />
    <path
       style="fill:none;fill-opacity:1;stroke:#000000;stroke-width:0.1;stroke-linecap:round;stroke-linejoin:round;stroke-miterlimit:4;stroke-dasharray:none;stroke-opacity:1"
       d="m 517.51242,6.6116169 c -11.6572,2.5e-4 -21.10717,9.4502201 -21.10743,21.1074201 4.7e-4,0.50898 0.0194,1.01777 0.0566,1.52539 l 0,69.132793 3.4706,0 0,10.63478 35.02539,0 0,-10.63478 3.60753,0 0,-69.566393 c 0.0277,-0.3634 0.0459,-0.72745 0.0547,-1.09179 -2.7e-4,-11.6572 -9.45023,-21.1071601 -21.10742,-21.1074201 z"
       id="rect12526-1-5"
       inkscape:connector-curvature="0"
       sodipodi:nodetypes="ccccccccccccc" />
  </g>
</svg>
