<?xml version="1.0" encoding="UTF-8" standalone="no"?>
<!-- Created with Inkscape (http://www.inkscape.org/) -->

<svg
   xmlns:dc="http://purl.org/dc/elements/1.1/"
   xmlns:cc="http://creativecommons.org/ns#"
   xmlns:rdf="http://www.w3.org/1999/02/22-rdf-syntax-ns#"
   xmlns:svg="http://www.w3.org/2000/svg"
   xmlns="http://www.w3.org/2000/svg"
   xmlns:sodipodi="http://sodipodi.sourceforge.net/DTD/sodipodi-0.dtd"
   xmlns:inkscape="http://www.inkscape.org/namespaces/inkscape"
   width="210mm"
   height="297mm"
   viewBox="0 0 744.09448819 1052.3622047"
   id="svg6029"
   version="1.1"
   inkscape:version="0.91 r13725"
   sodipodi:docname="program-tiles.svg">
  <defs
     id="defs6031" />
  <sodipodi:namedview
     id="base"
     pagecolor="#ffffff"
     bordercolor="#666666"
     borderopacity="1.0"
     inkscape:pageopacity="0.0"
     inkscape:pageshadow="2"
     inkscape:zoom="0.9899495"
     inkscape:cx="128.15301"
     inkscape:cy="1028.028"
     inkscape:document-units="px"
     inkscape:current-layer="layer1"
     showgrid="false"
     inkscape:window-width="2498"
     inkscape:window-height="1577"
     inkscape:window-x="54"
     inkscape:window-y="176"
     inkscape:window-maximized="1" />
  <metadata
     id="metadata6034">
    <rdf:RDF>
      <cc:Work
         rdf:about="">
        <dc:format>image/svg+xml</dc:format>
        <dc:type
           rdf:resource="http://purl.org/dc/dcmitype/StillImage" />
        <dc:title />
      </cc:Work>
    </rdf:RDF>
  </metadata>
  <g
     inkscape:label="Layer 1"
     inkscape:groupmode="layer"
     id="layer1">
    <path
       style="fill:none;fill-opacity:1;stroke:#000000;stroke-width:0.1;stroke-linecap:round;stroke-linejoin:round;stroke-miterlimit:4;stroke-dasharray:none;stroke-opacity:1"
       d="M 11.770735,8.3520639 C 9.2895545,8.3515339 7.2780245,10.363064 7.2785545,12.844244 l 0,0.0156 -0.002,0 0,70.65821 3.5175805,0 0,10.65625 3.54297,0 19.625,0 6.6543,0 19.6289,0 3.542974,0 0,-10.65625 3.51758,0 0,-70.65821 -0.006,0 0,-0.01 c -5.5e-4,-2.48042 -2.01177,-4.4907601 -4.492194,-4.4902301 -2.47966,5.5e-4 -4.48968,2.0105701 -4.49023,4.4902301 l 0,0.008 -0.002,0 c -0.33581,11.51903 -9.45957,20.90294 -21.02344,20.90625 -11.5654,-10e-4 -20.95939,-9.34105 -21.02735,-20.90625 l -0.002,0 0,-0.0137 c -0.17804,-2.52583 -2.011,-4.4927101 -4.49219,-4.4921801 z"
       id="rect11868-2-5-1-6-9"
       inkscape:connector-curvature="0"
       sodipodi:nodetypes="cccccccccccccccccsccccccccc" />
    <path
       style="fill:none;fill-opacity:1;stroke:#000000;stroke-width:0.1;stroke-linecap:round;stroke-linejoin:round;stroke-miterlimit:4;stroke-dasharray:none;stroke-opacity:1"
       d="m 80.58915,8.3520639 c -2.48118,-5.3e-4 -4.49271,2.0110001 -4.49218,4.4921801 l 0,0.0156 -0.002,0 0,70.65821 3.51758,0 0,10.65625 3.54297,0 19.625,0 6.6543,0 19.62891,0 3.54297,0 0,-10.65625 3.51758,0 0,-70.65821 -0.006,0 0,-0.01 c -5.5e-4,-2.48042 -2.01177,-4.4907601 -4.49219,-4.4902301 -2.47966,5.5e-4 -4.48968,2.0105701 -4.49023,4.4902301 l 0,0.008 -0.002,0 c -0.33581,11.51903 -9.45958,20.90294 -21.02345,20.90625 -11.5654,-10e-4 -20.95939,-9.34105 -21.02735,-20.90625 l -0.002,0 0,-0.0137 c -0.17804,-2.52583 -2.011,-4.4927101 -4.49219,-4.4921801 z"
       id="rect11868-2-5-1-6-9-9"
       inkscape:connector-curvature="0"
       sodipodi:nodetypes="cccccccccccccccccsccccccccc" />
    <path
       style="fill:none;fill-opacity:1;stroke:#000000;stroke-width:0.1;stroke-linecap:round;stroke-linejoin:round;stroke-miterlimit:4;stroke-dasharray:none;stroke-opacity:1"
       d="m 149.40757,8.3520639 c -2.48118,-5.3e-4 -4.49271,2.0110001 -4.49218,4.4921801 l 0,0.0156 -0.002,0 0,70.65821 3.51758,0 0,10.65625 3.54297,0 19.625,0 6.6543,0 19.6289,0 3.54297,0 0,-10.65625 3.51758,0 0,-70.65821 -0.006,0 0,-0.01 c -5.5e-4,-2.48042 -2.01177,-4.4907601 -4.49219,-4.4902301 -2.47966,5.5e-4 -4.48968,2.0105701 -4.49023,4.4902301 l 0,0.008 -0.002,0 c -0.33581,11.51903 -9.45957,20.90294 -21.02344,20.90625 -11.5654,-10e-4 -20.95939,-9.34105 -21.02735,-20.90625 l -0.002,0 0,-0.0137 c -0.17804,-2.52583 -2.011,-4.4927101 -4.49219,-4.4921801 z"
       id="rect11868-2-5-1-6-9-4"
       inkscape:connector-curvature="0"
       sodipodi:nodetypes="cccccccccccccccccsccccccccc" />
    <path
       style="fill:none;fill-opacity:1;stroke:#000000;stroke-width:0.1;stroke-linecap:round;stroke-linejoin:round;stroke-miterlimit:4;stroke-dasharray:none;stroke-opacity:1"
       d="m 218.22599,8.3520639 c -2.48118,-5.3e-4 -4.49271,2.0110001 -4.49218,4.4921801 l 0,0.0156 -0.002,0 0,70.65821 3.51758,0 0,10.65625 3.54297,0 19.625,0 6.6543,0 19.6289,0 3.54297,0 0,-10.65625 3.51758,0 0,-70.65821 -0.006,0 0,-0.01 c -5.5e-4,-2.48042 -2.01177,-4.4907601 -4.49219,-4.4902301 -2.47966,5.5e-4 -4.48968,2.0105701 -4.49023,4.4902301 l 0,0.008 -0.002,0 c -0.33581,11.51903 -9.45957,20.90294 -21.02344,20.90625 -11.5654,-10e-4 -20.95939,-9.34105 -21.02735,-20.90625 l -0.002,0 0,-0.0137 c -0.17804,-2.52583 -2.011,-4.4927101 -4.49219,-4.4921801 z"
       id="rect11868-2-5-1-6-9-3"
       inkscape:connector-curvature="0"
       sodipodi:nodetypes="cccccccccccccccccsccccccccc" />
    <path
       style="fill:none;fill-opacity:1;stroke:#000000;stroke-width:0.1;stroke-linecap:round;stroke-linejoin:round;stroke-miterlimit:4;stroke-dasharray:none;stroke-opacity:1"
       d="m 287.04441,8.3520639 c -2.48118,-5.3e-4 -4.49271,2.0110001 -4.49218,4.4921801 l 0,0.0156 -0.002,0 0,70.65821 3.51758,0 0,10.65625 3.54297,0 19.625,0 6.6543,0 19.6289,0 3.54298,0 0,-10.65625 3.51758,0 0,-70.65821 -0.006,0 0,-0.01 c -5.5e-4,-2.48042 -2.01177,-4.4907601 -4.4922,-4.4902301 -2.47966,5.5e-4 -4.48968,2.0105701 -4.49023,4.4902301 l 0,0.008 -0.002,0 c -0.33581,11.51903 -9.45957,20.90294 -21.02344,20.90625 -11.5654,-10e-4 -20.95939,-9.34105 -21.02735,-20.90625 l -0.002,0 0,-0.0137 c -0.17804,-2.52583 -2.011,-4.4927101 -4.49219,-4.4921801 z"
       id="rect11868-2-5-1-6-9-45"
       inkscape:connector-curvature="0"
       sodipodi:nodetypes="cccccccccccccccccsccccccccc" />
    <path
       style="fill:none;fill-opacity:1;stroke:#000000;stroke-width:0.1;stroke-linecap:round;stroke-linejoin:round;stroke-miterlimit:4;stroke-dasharray:none;stroke-opacity:1"
       d="m 355.86286,8.3520639 c -2.48118,-5.3e-4 -4.49271,2.0110001 -4.49218,4.4921801 l 0,0.0156 -0.002,0 0,70.65821 3.51758,0 0,10.65625 3.54297,0 19.625,0 6.6543,0 19.6289,0 3.54297,0 0,-10.65625 3.51758,0 0,-70.65821 -0.006,0 0,-0.01 c -5.5e-4,-2.48042 -2.01177,-4.4907601 -4.49219,-4.4902301 -2.47966,5.5e-4 -4.48968,2.0105701 -4.49023,4.4902301 l 0,0.008 -0.002,0 c -0.33581,11.51903 -9.45957,20.90294 -21.02344,20.90625 -11.5654,-10e-4 -20.95939,-9.34105 -21.02735,-20.90625 l -0.002,0 0,-0.0137 c -0.17804,-2.52583 -2.011,-4.4927101 -4.49219,-4.4921801 z"
       id="rect11868-2-5-1-6-9-5"
       inkscape:connector-curvature="0"
       sodipodi:nodetypes="cccccccccccccccccsccccccccc" />
    <path
       style="fill:none;fill-opacity:1;stroke:#000000;stroke-width:0.1;stroke-linecap:round;stroke-linejoin:round;stroke-miterlimit:4;stroke-dasharray:none;stroke-opacity:1"
       d="m 631.13653,8.3520639 c -2.48118,-5.3e-4 -4.49271,2.0110001 -4.49218,4.4921801 l 0,0.0156 -0.002,0 0,70.65821 3.51758,0 0,10.65625 3.54297,0 19.625,0 6.6543,0 19.6289,0 3.54297,0 0,-10.65625 3.51758,0 0,-70.65821 -0.006,0 0,-0.01 c -5.5e-4,-2.48042 -2.01177,-4.4907601 -4.49219,-4.4902301 -2.47966,5.5e-4 -4.48968,2.0105701 -4.49023,4.4902301 l 0,0.008 -0.002,0 c -0.33581,11.51903 -9.45957,20.90294 -21.02344,20.90625 -11.5654,-10e-4 -20.95939,-9.34105 -21.02735,-20.90625 l -0.002,0 0,-0.0137 c -0.17804,-2.52583 -2.011,-4.4927101 -4.49219,-4.4921801 z"
       id="rect11868-2-5-1-6-9-49"
       inkscape:connector-curvature="0"
       sodipodi:nodetypes="cccccccccccccccccsccccccccc" />
    <path
       style="fill:none;fill-opacity:1;stroke:#000000;stroke-width:0.1;stroke-linecap:round;stroke-linejoin:round;stroke-miterlimit:4;stroke-dasharray:none;stroke-opacity:1"
       d="m 562.31814,8.3520639 c -2.48118,-5.3e-4 -4.49271,2.0110001 -4.49218,4.4921801 l 0,0.0156 -0.002,0 0,70.65821 3.51758,0 0,10.65625 3.54297,0 19.625,0 6.6543,0 19.6289,0 3.54297,0 0,-10.65625 3.51758,0 0,-70.65821 -0.006,0 0,-0.01 c -5.5e-4,-2.48042 -2.01177,-4.4907601 -4.49219,-4.4902301 -2.47966,5.5e-4 -4.48968,2.0105701 -4.49023,4.4902301 l 0,0.008 -0.002,0 c -0.33581,11.51903 -9.45957,20.90294 -21.02344,20.90625 -11.5654,-10e-4 -20.95939,-9.34105 -21.02735,-20.90625 l -0.002,0 0,-0.0137 c -0.17804,-2.52583 -2.011,-4.4927101 -4.49219,-4.4921801 z"
       id="rect11868-2-5-1-6-9-2"
       inkscape:connector-curvature="0"
       sodipodi:nodetypes="cccccccccccccccccsccccccccc" />
    <path
       style="fill:none;fill-opacity:1;stroke:#000000;stroke-width:0.1;stroke-linecap:round;stroke-linejoin:round;stroke-miterlimit:4;stroke-dasharray:none;stroke-opacity:1"
       d="m 493.49969,8.3520639 c -2.48118,-5.3e-4 -4.49271,2.0110001 -4.49218,4.4921801 l 0,0.0156 -0.002,0 0,70.65821 3.51758,0 0,10.65625 3.54297,0 19.625,0 6.6543,0 19.6289,0 3.54297,0 0,-10.65625 3.51758,0 0,-70.65821 -0.006,0 0,-0.01 c -5.5e-4,-2.48042 -2.01177,-4.4907601 -4.49219,-4.4902301 -2.47966,5.5e-4 -4.48968,2.0105701 -4.49023,4.4902301 l 0,0.008 -0.002,0 c -0.33581,11.51903 -9.45957,20.90294 -21.02344,20.90625 -11.5654,-10e-4 -20.95939,-9.34105 -21.02735,-20.90625 l -0.002,0 0,-0.0137 c -0.17804,-2.52583 -2.011,-4.4927101 -4.49219,-4.4921801 z"
       id="rect11868-2-5-1-6-9-32"
       inkscape:connector-curvature="0"
       sodipodi:nodetypes="cccccccccccccccccsccccccccc" />
    <path
       style="fill:none;fill-opacity:1;stroke:#000000;stroke-width:0.1;stroke-linecap:round;stroke-linejoin:round;stroke-miterlimit:4;stroke-dasharray:none;stroke-opacity:1"
       d="m 424.68127,8.3520639 c -2.48118,-5.3e-4 -4.49271,2.0110001 -4.49218,4.4921801 l 0,0.0156 -0.002,0 0,70.65821 3.51758,0 0,10.65625 3.54297,0 19.625,0 6.6543,0 19.6289,0 3.54297,0 0,-10.65625 3.51758,0 0,-70.65821 -0.006,0 0,-0.01 c -5.5e-4,-2.48042 -2.01177,-4.4907601 -4.49219,-4.4902301 -2.47966,5.5e-4 -4.48968,2.0105701 -4.49023,4.4902301 l 0,0.008 -0.002,0 c -0.33581,11.51903 -9.45957,20.90294 -21.02344,20.90625 -11.5654,-10e-4 -20.95939,-9.34105 -21.02735,-20.90625 l -0.002,0 0,-0.0137 c -0.17804,-2.52583 -2.011,-4.4927101 -4.49219,-4.4921801 z"
       id="rect11868-2-5-1-6-9-30"
       inkscape:connector-curvature="0"
       sodipodi:nodetypes="cccccccccccccccccsccccccccc" />
  </g>
</svg>
