<?xml version="1.0" encoding="UTF-8" standalone="no"?>
<!-- Created with Inkscape (http://www.inkscape.org/) -->

<svg
   xmlns:dc="http://purl.org/dc/elements/1.1/"
   xmlns:cc="http://creativecommons.org/ns#"
   xmlns:rdf="http://www.w3.org/1999/02/22-rdf-syntax-ns#"
   xmlns:svg="http://www.w3.org/2000/svg"
   xmlns="http://www.w3.org/2000/svg"
   xmlns:sodipodi="http://sodipodi.sourceforge.net/DTD/sodipodi-0.dtd"
   xmlns:inkscape="http://www.inkscape.org/namespaces/inkscape"
   width="39cm"
   height="34cm"
   viewBox="0 0 1381.8898 1204.7244"
   id="svg5572"
   version="1.1"
   inkscape:version="0.91 r13725"
   sodipodi:docname="sides.svg">
  <defs
     id="defs5574" />
  <sodipodi:namedview
     id="base"
     pagecolor="#ffffff"
     bordercolor="#666666"
     borderopacity="1.0"
     inkscape:pageopacity="0.0"
     inkscape:pageshadow="2"
     inkscape:zoom="1"
     inkscape:cx="691.8022"
     inkscape:cy="592.59214"
     inkscape:document-units="px"
     inkscape:current-layer="layer1"
     showgrid="false"
     inkscape:window-width="2498"
     inkscape:window-height="1577"
     inkscape:window-x="54"
     inkscape:window-y="176"
     inkscape:window-maximized="1"
     units="cm" />
  <metadata
     id="metadata5577">
    <rdf:RDF>
      <cc:Work
         rdf:about="">
        <dc:format>image/svg+xml</dc:format>
        <dc:type
           rdf:resource="http://purl.org/dc/dcmitype/StillImage" />
        <dc:title></dc:title>
      </cc:Work>
    </rdf:RDF>
  </metadata>
  <g
     inkscape:label="Layer 1"
     inkscape:groupmode="layer"
     id="layer1"
     transform="translate(0,152.3622)">
    <g
       id="g4439-6-6-6"
       transform="translate(-35.821937,-690.72004)">
      <path
         id="path6126-7-2-1-0"
         d="m 320.94052,635.48518 c 0.004,-0.0814 0.008,-0.16275 0.0117,-0.24414 -4.4e-4,-48.83248 -39.58744,-88.41861 -88.41992,-88.41797 l -0.003,0 c -48.83172,4.4e-4 -88.41753,39.58625 -88.41797,88.41797 0.003,0.0814 0.005,0.16276 0.008,0.24414 l 0.003,26.58224 c 0,0 5.16241,0.0165 7.70898,0 8.39305,-0.0543 14,-21.17969 14,-21.17969 0,-0.83271 0.12307,-1.63545 0.33594,-2.39844 1.79704,-37.63889 28.81241,-67.24587 66.49414,-67.29297 37.66029,0.0194 64.68773,29.57088 66.54102,67.18555 0.2324,0.79436 0.36133,1.6344 0.36133,2.50586 0,0 5.60682,21.14859 14,21.17969 2.47584,0.009 4.91703,0.0258 7.38281,0.0371 z"
         style="fill:none;fill-opacity:1;stroke:#000000;stroke-width:0.5;stroke-linecap:round;stroke-linejoin:round;stroke-miterlimit:4;stroke-dasharray:none;stroke-opacity:1"
         inkscape:connector-curvature="0"
         sodipodi:nodetypes="cccscccscccccccc" />
    </g>
    <g
       id="g4439-6-6-6-7"
       transform="matrix(-1,0,0,-1,329.76936,564.42419)">
      <path
         id="path6126-7-2-1-0-4"
         d="m 320.94052,635.48518 c 0.004,-0.0814 0.008,-0.16275 0.0117,-0.24414 -4.4e-4,-48.83248 -39.58744,-88.41861 -88.41992,-88.41797 l -0.003,0 c -48.83172,4.4e-4 -88.41753,39.58625 -88.41797,88.41797 0.003,0.0814 0.005,0.16276 0.008,0.24414 l 0.003,26.58224 c 0,0 5.16241,0.0165 7.70898,0 8.39305,-0.0543 14,-21.17969 14,-21.17969 0,-0.83271 0.12307,-1.63545 0.33594,-2.39844 1.79704,-37.63889 28.81241,-67.24587 66.49414,-67.29297 37.66029,0.0194 64.68773,29.57088 66.54102,67.18555 0.2324,0.79436 0.36133,1.6344 0.36133,2.50586 0,0 5.60682,21.14859 14,21.17969 2.47584,0.009 4.91703,0.0258 7.38281,0.0371 z"
         style="fill:none;fill-opacity:1;stroke:#000000;stroke-width:0.5;stroke-linecap:round;stroke-linejoin:round;stroke-miterlimit:4;stroke-dasharray:none;stroke-opacity:1"
         inkscape:connector-curvature="0"
         sodipodi:nodetypes="cccscccscccccccc" />
    </g>
    <g
       id="g4439-6-6-6-7-9"
       transform="matrix(-1,0,0,-1,529.10393,564.42419)">
      <path
         id="path6126-7-2-1-0-4-59"
         d="m 320.94052,635.48518 c 0.004,-0.0814 0.008,-0.16275 0.0117,-0.24414 -4.4e-4,-48.83248 -39.58744,-88.41861 -88.41992,-88.41797 l -0.003,0 c -48.83172,4.4e-4 -88.41753,39.58625 -88.41797,88.41797 0.003,0.0814 0.005,0.16276 0.008,0.24414 l 0.003,26.58224 c 0,0 5.16241,0.0165 7.70898,0 8.39305,-0.0543 14,-21.17969 14,-21.17969 0,-0.83271 0.12307,-1.63545 0.33594,-2.39844 1.79704,-37.63889 28.81241,-67.24587 66.49414,-67.29297 37.66029,0.0194 64.68773,29.57088 66.54102,67.18555 0.2324,0.79436 0.36133,1.6344 0.36133,2.50586 0,0 5.60682,21.14859 14,21.17969 2.47584,0.009 4.91703,0.0258 7.38281,0.0371 z"
         style="fill:none;fill-opacity:1;stroke:#000000;stroke-width:0.5;stroke-linecap:round;stroke-linejoin:round;stroke-miterlimit:4;stroke-dasharray:none;stroke-opacity:1"
         inkscape:connector-curvature="0"
         sodipodi:nodetypes="cccscccscccccccc" />
    </g>
    <g
       id="g4439-6-6-6-59"
       transform="translate(163.51263,-690.72004)">
      <path
         id="path6126-7-2-1-0-13"
         d="m 320.94052,635.48518 c 0.004,-0.0814 0.008,-0.16275 0.0117,-0.24414 -4.4e-4,-48.83248 -39.58744,-88.41861 -88.41992,-88.41797 l -0.003,0 c -48.83172,4.4e-4 -88.41753,39.58625 -88.41797,88.41797 0.003,0.0814 0.005,0.16276 0.008,0.24414 l 0.003,26.58224 c 0,0 5.16241,0.0165 7.70898,0 8.39305,-0.0543 14,-21.17969 14,-21.17969 0,-0.83271 0.12307,-1.63545 0.33594,-2.39844 1.79704,-37.63889 28.81241,-67.24587 66.49414,-67.29297 37.66029,0.0194 64.68773,29.57088 66.54102,67.18555 0.2324,0.79436 0.36133,1.6344 0.36133,2.50586 0,0 5.60682,21.14859 14,21.17969 2.47584,0.009 4.91703,0.0258 7.38281,0.0371 z"
         style="fill:none;fill-opacity:1;stroke:#000000;stroke-width:0.5;stroke-linecap:round;stroke-linejoin:round;stroke-miterlimit:4;stroke-dasharray:none;stroke-opacity:1"
         inkscape:connector-curvature="0"
         sodipodi:nodetypes="cccscccscccccccc" />
    </g>
    <g
       id="g4439-6-6-6-6"
       transform="translate(362.84724,-690.72004)">
      <path
         id="path6126-7-2-1-0-1"
         d="m 320.94052,635.48518 c 0.004,-0.0814 0.008,-0.16275 0.0117,-0.24414 -4.4e-4,-48.83248 -39.58744,-88.41861 -88.41992,-88.41797 l -0.003,0 c -48.83172,4.4e-4 -88.41753,39.58625 -88.41797,88.41797 0.003,0.0814 0.005,0.16276 0.008,0.24414 l 0.003,26.58224 c 0,0 5.16241,0.0165 7.70898,0 8.39305,-0.0543 14,-21.17969 14,-21.17969 0,-0.83271 0.12307,-1.63545 0.33594,-2.39844 1.79704,-37.63889 28.81241,-67.24587 66.49414,-67.29297 37.66029,0.0194 64.68773,29.57088 66.54102,67.18555 0.2324,0.79436 0.36133,1.6344 0.36133,2.50586 0,0 5.60682,21.14859 14,21.17969 2.47584,0.009 4.91703,0.0258 7.38281,0.0371 z"
         style="fill:none;fill-opacity:1;stroke:#000000;stroke-width:0.5;stroke-linecap:round;stroke-linejoin:round;stroke-miterlimit:4;stroke-dasharray:none;stroke-opacity:1"
         inkscape:connector-curvature="0"
         sodipodi:nodetypes="cccscccscccccccc" />
    </g>
    <g
       id="g4439-6-6-6-7-1"
       transform="matrix(-1,0,0,-1,728.43848,564.42419)">
      <path
         id="path6126-7-2-1-0-4-6"
         d="m 320.94052,635.48518 c 0.004,-0.0814 0.008,-0.16275 0.0117,-0.24414 -4.4e-4,-48.83248 -39.58744,-88.41861 -88.41992,-88.41797 l -0.003,0 c -48.83172,4.4e-4 -88.41753,39.58625 -88.41797,88.41797 0.003,0.0814 0.005,0.16276 0.008,0.24414 l 0.003,26.58224 c 0,0 5.16241,0.0165 7.70898,0 8.39305,-0.0543 14,-21.17969 14,-21.17969 0,-0.83271 0.12307,-1.63545 0.33594,-2.39844 1.79704,-37.63889 28.81241,-67.24587 66.49414,-67.29297 37.66029,0.0194 64.68773,29.57088 66.54102,67.18555 0.2324,0.79436 0.36133,1.6344 0.36133,2.50586 0,0 5.60682,21.14859 14,21.17969 2.47584,0.009 4.91703,0.0258 7.38281,0.0371 z"
         style="fill:none;fill-opacity:1;stroke:#000000;stroke-width:0.5;stroke-linecap:round;stroke-linejoin:round;stroke-miterlimit:4;stroke-dasharray:none;stroke-opacity:1"
         inkscape:connector-curvature="0"
         sodipodi:nodetypes="cccscccscccccccc" />
    </g>
    <g
       id="g4439-6-6-6-7-9-0"
       transform="matrix(-1,0,0,-1,927.77298,564.42419)">
      <path
         id="path6126-7-2-1-0-4-59-3"
         d="m 320.94052,635.48518 c 0.004,-0.0814 0.008,-0.16275 0.0117,-0.24414 -4.4e-4,-48.83248 -39.58744,-88.41861 -88.41992,-88.41797 l -0.003,0 c -48.83172,4.4e-4 -88.41753,39.58625 -88.41797,88.41797 0.003,0.0814 0.005,0.16276 0.008,0.24414 l 0.003,26.58224 c 0,0 5.16241,0.0165 7.70898,0 8.39305,-0.0543 14,-21.17969 14,-21.17969 0,-0.83271 0.12307,-1.63545 0.33594,-2.39844 1.79704,-37.63889 28.81241,-67.24587 66.49414,-67.29297 37.66029,0.0194 64.68773,29.57088 66.54102,67.18555 0.2324,0.79436 0.36133,1.6344 0.36133,2.50586 0,0 5.60682,21.14859 14,21.17969 2.47584,0.009 4.91703,0.0258 7.38281,0.0371 z"
         style="fill:none;fill-opacity:1;stroke:#000000;stroke-width:0.5;stroke-linecap:round;stroke-linejoin:round;stroke-miterlimit:4;stroke-dasharray:none;stroke-opacity:1"
         inkscape:connector-curvature="0"
         sodipodi:nodetypes="cccscccscccccccc" />
    </g>
    <g
       id="g4439-6-6-6-59-5"
       transform="translate(562.1818,-690.72004)">
      <path
         id="path6126-7-2-1-0-13-7"
         d="m 320.94052,635.48518 c 0.004,-0.0814 0.008,-0.16275 0.0117,-0.24414 -4.4e-4,-48.83248 -39.58744,-88.41861 -88.41992,-88.41797 l -0.003,0 c -48.83172,4.4e-4 -88.41753,39.58625 -88.41797,88.41797 0.003,0.0814 0.005,0.16276 0.008,0.24414 l 0.003,26.58224 c 0,0 5.16241,0.0165 7.70898,0 8.39305,-0.0543 14,-21.17969 14,-21.17969 0,-0.83271 0.12307,-1.63545 0.33594,-2.39844 1.79704,-37.63889 28.81241,-67.24587 66.49414,-67.29297 37.66029,0.0194 64.68773,29.57088 66.54102,67.18555 0.2324,0.79436 0.36133,1.6344 0.36133,2.50586 0,0 5.60682,21.14859 14,21.17969 2.47584,0.009 4.91703,0.0258 7.38281,0.0371 z"
         style="fill:none;fill-opacity:1;stroke:#000000;stroke-width:0.5;stroke-linecap:round;stroke-linejoin:round;stroke-miterlimit:4;stroke-dasharray:none;stroke-opacity:1"
         inkscape:connector-curvature="0"
         sodipodi:nodetypes="cccscccscccccccc" />
    </g>
    <g
       id="g4439-6-6-6-2"
       transform="translate(761.51637,-690.72004)">
      <path
         id="path6126-7-2-1-0-5"
         d="m 320.94052,635.48518 c 0.004,-0.0814 0.008,-0.16275 0.0117,-0.24414 -4.4e-4,-48.83248 -39.58744,-88.41861 -88.41992,-88.41797 l -0.003,0 c -48.83172,4.4e-4 -88.41753,39.58625 -88.41797,88.41797 0.003,0.0814 0.005,0.16276 0.008,0.24414 l 0.003,26.58224 c 0,0 5.16241,0.0165 7.70898,0 8.39305,-0.0543 14,-21.17969 14,-21.17969 0,-0.83271 0.12307,-1.63545 0.33594,-2.39844 1.79704,-37.63889 28.81241,-67.24587 66.49414,-67.29297 37.66029,0.0194 64.68773,29.57088 66.54102,67.18555 0.2324,0.79436 0.36133,1.6344 0.36133,2.50586 0,0 5.60682,21.14859 14,21.17969 2.47584,0.009 4.91703,0.0258 7.38281,0.0371 z"
         style="fill:none;fill-opacity:1;stroke:#000000;stroke-width:0.5;stroke-linecap:round;stroke-linejoin:round;stroke-miterlimit:4;stroke-dasharray:none;stroke-opacity:1"
         inkscape:connector-curvature="0"
         sodipodi:nodetypes="cccscccscccccccc" />
    </g>
    <g
       id="g4439-6-6-6-7-64"
       transform="matrix(-1,0,0,-1,1127.1076,564.42419)">
      <path
         id="path6126-7-2-1-0-4-4"
         d="m 320.94052,635.48518 c 0.004,-0.0814 0.008,-0.16275 0.0117,-0.24414 -4.4e-4,-48.83248 -39.58744,-88.41861 -88.41992,-88.41797 l -0.003,0 c -48.83172,4.4e-4 -88.41753,39.58625 -88.41797,88.41797 0.003,0.0814 0.005,0.16276 0.008,0.24414 l 0.003,26.58224 c 0,0 5.16241,0.0165 7.70898,0 8.39305,-0.0543 14,-21.17969 14,-21.17969 0,-0.83271 0.12307,-1.63545 0.33594,-2.39844 1.79704,-37.63889 28.81241,-67.24587 66.49414,-67.29297 37.66029,0.0194 64.68773,29.57088 66.54102,67.18555 0.2324,0.79436 0.36133,1.6344 0.36133,2.50586 0,0 5.60682,21.14859 14,21.17969 2.47584,0.009 4.91703,0.0258 7.38281,0.0371 z"
         style="fill:none;fill-opacity:1;stroke:#000000;stroke-width:0.5;stroke-linecap:round;stroke-linejoin:round;stroke-miterlimit:4;stroke-dasharray:none;stroke-opacity:1"
         inkscape:connector-curvature="0"
         sodipodi:nodetypes="cccscccscccccccc" />
    </g>
    <g
       id="g4439-6-6-6-4"
       transform="translate(-36.164157,-549.11776)">
      <path
         id="path6126-7-2-1-0-0"
         d="m 320.94052,635.48518 c 0.004,-0.0814 0.008,-0.16275 0.0117,-0.24414 -4.4e-4,-48.83248 -39.58744,-88.41861 -88.41992,-88.41797 l -0.003,0 c -48.83172,4.4e-4 -88.41753,39.58625 -88.41797,88.41797 0.003,0.0814 0.005,0.16276 0.008,0.24414 l 0.003,26.58224 c 0,0 5.16241,0.0165 7.70898,0 8.39305,-0.0543 14,-21.17969 14,-21.17969 0,-0.83271 0.12307,-1.63545 0.33594,-2.39844 1.79704,-37.63889 28.81241,-67.24587 66.49414,-67.29297 37.66029,0.0194 64.68773,29.57088 66.54102,67.18555 0.2324,0.79436 0.36133,1.6344 0.36133,2.50586 0,0 5.60682,21.14859 14,21.17969 2.47584,0.009 4.91703,0.0258 7.38281,0.0371 z"
         style="fill:none;fill-opacity:1;stroke:#000000;stroke-width:0.5;stroke-linecap:round;stroke-linejoin:round;stroke-miterlimit:4;stroke-dasharray:none;stroke-opacity:1"
         inkscape:connector-curvature="0"
         sodipodi:nodetypes="cccscccscccccccc" />
    </g>
    <g
       id="g4439-6-6-6-7-2"
       transform="matrix(-1,0,0,-1,329.42714,706.02647)">
      <path
         id="path6126-7-2-1-0-4-1"
         d="m 320.94052,635.48518 c 0.004,-0.0814 0.008,-0.16275 0.0117,-0.24414 -4.4e-4,-48.83248 -39.58744,-88.41861 -88.41992,-88.41797 l -0.003,0 c -48.83172,4.4e-4 -88.41753,39.58625 -88.41797,88.41797 0.003,0.0814 0.005,0.16276 0.008,0.24414 l 0.003,26.58224 c 0,0 5.16241,0.0165 7.70898,0 8.39305,-0.0543 14,-21.17969 14,-21.17969 0,-0.83271 0.12307,-1.63545 0.33594,-2.39844 1.79704,-37.63889 28.81241,-67.24587 66.49414,-67.29297 37.66029,0.0194 64.68773,29.57088 66.54102,67.18555 0.2324,0.79436 0.36133,1.6344 0.36133,2.50586 0,0 5.60682,21.14859 14,21.17969 2.47584,0.009 4.91703,0.0258 7.38281,0.0371 z"
         style="fill:none;fill-opacity:1;stroke:#000000;stroke-width:0.5;stroke-linecap:round;stroke-linejoin:round;stroke-miterlimit:4;stroke-dasharray:none;stroke-opacity:1"
         inkscape:connector-curvature="0"
         sodipodi:nodetypes="cccscccscccccccc" />
    </g>
    <g
       id="g4439-6-6-6-7-9-6"
       transform="matrix(-1,0,0,-1,528.76174,706.02647)">
      <path
         id="path6126-7-2-1-0-4-59-8"
         d="m 320.94052,635.48518 c 0.004,-0.0814 0.008,-0.16275 0.0117,-0.24414 -4.4e-4,-48.83248 -39.58744,-88.41861 -88.41992,-88.41797 l -0.003,0 c -48.83172,4.4e-4 -88.41753,39.58625 -88.41797,88.41797 0.003,0.0814 0.005,0.16276 0.008,0.24414 l 0.003,26.58224 c 0,0 5.16241,0.0165 7.70898,0 8.39305,-0.0543 14,-21.17969 14,-21.17969 0,-0.83271 0.12307,-1.63545 0.33594,-2.39844 1.79704,-37.63889 28.81241,-67.24587 66.49414,-67.29297 37.66029,0.0194 64.68773,29.57088 66.54102,67.18555 0.2324,0.79436 0.36133,1.6344 0.36133,2.50586 0,0 5.60682,21.14859 14,21.17969 2.47584,0.009 4.91703,0.0258 7.38281,0.0371 z"
         style="fill:none;fill-opacity:1;stroke:#000000;stroke-width:0.5;stroke-linecap:round;stroke-linejoin:round;stroke-miterlimit:4;stroke-dasharray:none;stroke-opacity:1"
         inkscape:connector-curvature="0"
         sodipodi:nodetypes="cccscccscccccccc" />
    </g>
    <g
       id="g4439-6-6-6-59-8"
       transform="translate(163.1704,-549.11776)">
      <path
         id="path6126-7-2-1-0-13-6"
         d="m 320.94052,635.48518 c 0.004,-0.0814 0.008,-0.16275 0.0117,-0.24414 -4.4e-4,-48.83248 -39.58744,-88.41861 -88.41992,-88.41797 l -0.003,0 c -48.83172,4.4e-4 -88.41753,39.58625 -88.41797,88.41797 0.003,0.0814 0.005,0.16276 0.008,0.24414 l 0.003,26.58224 c 0,0 5.16241,0.0165 7.70898,0 8.39305,-0.0543 14,-21.17969 14,-21.17969 0,-0.83271 0.12307,-1.63545 0.33594,-2.39844 1.79704,-37.63889 28.81241,-67.24587 66.49414,-67.29297 37.66029,0.0194 64.68773,29.57088 66.54102,67.18555 0.2324,0.79436 0.36133,1.6344 0.36133,2.50586 0,0 5.60682,21.14859 14,21.17969 2.47584,0.009 4.91703,0.0258 7.38281,0.0371 z"
         style="fill:none;fill-opacity:1;stroke:#000000;stroke-width:0.5;stroke-linecap:round;stroke-linejoin:round;stroke-miterlimit:4;stroke-dasharray:none;stroke-opacity:1"
         inkscape:connector-curvature="0"
         sodipodi:nodetypes="cccscccscccccccc" />
    </g>
    <g
       id="g4439-6-6-6-6-1"
       transform="translate(362.50502,-549.11776)">
      <path
         id="path6126-7-2-1-0-1-5"
         d="m 320.94052,635.48518 c 0.004,-0.0814 0.008,-0.16275 0.0117,-0.24414 -4.4e-4,-48.83248 -39.58744,-88.41861 -88.41992,-88.41797 l -0.003,0 c -48.83172,4.4e-4 -88.41753,39.58625 -88.41797,88.41797 0.003,0.0814 0.005,0.16276 0.008,0.24414 l 0.003,26.58224 c 0,0 5.16241,0.0165 7.70898,0 8.39305,-0.0543 14,-21.17969 14,-21.17969 0,-0.83271 0.12307,-1.63545 0.33594,-2.39844 1.79704,-37.63889 28.81241,-67.24587 66.49414,-67.29297 37.66029,0.0194 64.68773,29.57088 66.54102,67.18555 0.2324,0.79436 0.36133,1.6344 0.36133,2.50586 0,0 5.60682,21.14859 14,21.17969 2.47584,0.009 4.91703,0.0258 7.38281,0.0371 z"
         style="fill:none;fill-opacity:1;stroke:#000000;stroke-width:0.5;stroke-linecap:round;stroke-linejoin:round;stroke-miterlimit:4;stroke-dasharray:none;stroke-opacity:1"
         inkscape:connector-curvature="0"
         sodipodi:nodetypes="cccscccscccccccc" />
    </g>
    <g
       id="g4439-6-6-6-7-1-3"
       transform="matrix(-1,0,0,-1,728.09624,702.02647)">
      <path
         id="path6126-7-2-1-0-4-6-5"
         d="m 320.94052,635.48518 c 0.004,-0.0814 0.008,-0.16275 0.0117,-0.24414 -4.4e-4,-48.83248 -39.58744,-88.41861 -88.41992,-88.41797 l -0.003,0 c -48.83172,4.4e-4 -88.41753,39.58625 -88.41797,88.41797 0.003,0.0814 0.005,0.16276 0.008,0.24414 l 0.003,26.58224 c 0,0 5.16241,0.0165 7.70898,0 8.39305,-0.0543 14,-21.17969 14,-21.17969 0,-0.83271 0.12307,-1.63545 0.33594,-2.39844 1.79704,-37.63889 28.81241,-67.24587 66.49414,-67.29297 37.66029,0.0194 64.68773,29.57088 66.54102,67.18555 0.2324,0.79436 0.36133,1.6344 0.36133,2.50586 0,0 5.60682,21.14859 14,21.17969 2.47584,0.009 4.91703,0.0258 7.38281,0.0371 z"
         style="fill:none;fill-opacity:1;stroke:#000000;stroke-width:0.5;stroke-linecap:round;stroke-linejoin:round;stroke-miterlimit:4;stroke-dasharray:none;stroke-opacity:1"
         inkscape:connector-curvature="0"
         sodipodi:nodetypes="cccscccscccccccc" />
    </g>
    <g
       id="g4439-6-6-6-7-9-0-4"
       transform="matrix(-1,0,0,-1,927.43074,704.02647)">
      <path
         id="path6126-7-2-1-0-4-59-3-6"
         d="m 320.94052,635.48518 c 0.004,-0.0814 0.008,-0.16275 0.0117,-0.24414 -4.4e-4,-48.83248 -39.58744,-88.41861 -88.41992,-88.41797 l -0.003,0 c -48.83172,4.4e-4 -88.41753,39.58625 -88.41797,88.41797 0.003,0.0814 0.005,0.16276 0.008,0.24414 l 0.003,26.58224 c 0,0 5.16241,0.0165 7.70898,0 8.39305,-0.0543 14,-21.17969 14,-21.17969 0,-0.83271 0.12307,-1.63545 0.33594,-2.39844 1.79704,-37.63889 28.81241,-67.24587 66.49414,-67.29297 37.66029,0.0194 64.68773,29.57088 66.54102,67.18555 0.2324,0.79436 0.36133,1.6344 0.36133,2.50586 0,0 5.60682,21.14859 14,21.17969 2.47584,0.009 4.91703,0.0258 7.38281,0.0371 z"
         style="fill:none;fill-opacity:1;stroke:#000000;stroke-width:0.5;stroke-linecap:round;stroke-linejoin:round;stroke-miterlimit:4;stroke-dasharray:none;stroke-opacity:1"
         inkscape:connector-curvature="0"
         sodipodi:nodetypes="cccscccscccccccc" />
    </g>
    <g
       id="g4439-6-6-6-59-5-0"
       transform="translate(561.83954,-549.11776)">
      <path
         id="path6126-7-2-1-0-13-7-1"
         d="m 320.94052,635.48518 c 0.004,-0.0814 0.008,-0.16275 0.0117,-0.24414 -4.4e-4,-48.83248 -39.58744,-88.41861 -88.41992,-88.41797 l -0.003,0 c -48.83172,4.4e-4 -88.41753,39.58625 -88.41797,88.41797 0.003,0.0814 0.005,0.16276 0.008,0.24414 l 0.003,26.58224 c 0,0 5.16241,0.0165 7.70898,0 8.39305,-0.0543 14,-21.17969 14,-21.17969 0,-0.83271 0.12307,-1.63545 0.33594,-2.39844 1.79704,-37.63889 28.81241,-67.24587 66.49414,-67.29297 37.66029,0.0194 64.68773,29.57088 66.54102,67.18555 0.2324,0.79436 0.36133,1.6344 0.36133,2.50586 0,0 5.60682,21.14859 14,21.17969 2.47584,0.009 4.91703,0.0258 7.38281,0.0371 z"
         style="fill:none;fill-opacity:1;stroke:#000000;stroke-width:0.5;stroke-linecap:round;stroke-linejoin:round;stroke-miterlimit:4;stroke-dasharray:none;stroke-opacity:1"
         inkscape:connector-curvature="0"
         sodipodi:nodetypes="cccscccscccccccc" />
    </g>
    <g
       id="g4439-6-6-6-2-3"
       transform="translate(759.17414,-545.11776)">
      <path
         id="path6126-7-2-1-0-5-6"
         d="m 320.94052,635.48518 c 0.004,-0.0814 0.008,-0.16275 0.0117,-0.24414 -4.4e-4,-48.83248 -39.58744,-88.41861 -88.41992,-88.41797 l -0.003,0 c -48.83172,4.4e-4 -88.41753,39.58625 -88.41797,88.41797 0.003,0.0814 0.005,0.16276 0.008,0.24414 l 0.003,26.58224 c 0,0 5.16241,0.0165 7.70898,0 8.39305,-0.0543 14,-21.17969 14,-21.17969 0,-0.83271 0.12307,-1.63545 0.33594,-2.39844 1.79704,-37.63889 28.81241,-67.24587 66.49414,-67.29297 37.66029,0.0194 64.68773,29.57088 66.54102,67.18555 0.2324,0.79436 0.36133,1.6344 0.36133,2.50586 0,0 5.60682,21.14859 14,21.17969 2.47584,0.009 4.91703,0.0258 7.38281,0.0371 z"
         style="fill:none;fill-opacity:1;stroke:#000000;stroke-width:0.5;stroke-linecap:round;stroke-linejoin:round;stroke-miterlimit:4;stroke-dasharray:none;stroke-opacity:1"
         inkscape:connector-curvature="0"
         sodipodi:nodetypes="cccscccscccccccc" />
    </g>
    <g
       id="g4439-6-6-6-7-64-7"
       transform="matrix(-1,0,0,-1,1126.7654,698.02647)">
      <path
         id="path6126-7-2-1-0-4-4-8"
         d="m 320.94052,635.48518 c 0.004,-0.0814 0.008,-0.16275 0.0117,-0.24414 -4.4e-4,-48.83248 -39.58744,-88.41861 -88.41992,-88.41797 l -0.003,0 c -48.83172,4.4e-4 -88.41753,39.58625 -88.41797,88.41797 0.003,0.0814 0.005,0.16276 0.008,0.24414 l 0.003,26.58224 c 0,0 5.16241,0.0165 7.70898,0 8.39305,-0.0543 14,-21.17969 14,-21.17969 0,-0.83271 0.12307,-1.63545 0.33594,-2.39844 1.79704,-37.63889 28.81241,-67.24587 66.49414,-67.29297 37.66029,0.0194 64.68773,29.57088 66.54102,67.18555 0.2324,0.79436 0.36133,1.6344 0.36133,2.50586 0,0 5.60682,21.14859 14,21.17969 2.47584,0.009 4.91703,0.0258 7.38281,0.0371 z"
         style="fill:none;fill-opacity:1;stroke:#000000;stroke-width:0.5;stroke-linecap:round;stroke-linejoin:round;stroke-miterlimit:4;stroke-dasharray:none;stroke-opacity:1"
         inkscape:connector-curvature="0"
         sodipodi:nodetypes="cccscccscccccccc" />
    </g>
    <g
       id="g4439-6-8-5"
       transform="matrix(-1,0,0,-1,85.01959,854.1452)">
      <path
         style="fill:none;fill-opacity:1;stroke:#000000;stroke-width:0.5;stroke-linecap:round;stroke-linejoin:round;stroke-miterlimit:4;stroke-dasharray:none;stroke-opacity:1"
         d="m 100.81161,654.03669 -10.487308,0 c -4.90748,0 -8.85742,-3.94994 -8.85742,-8.85742 l -10e-7,-10.64062 -26.709018,-7e-5 -10e-7,28.34765 c 0,9.81496 7.89988,17.71679 17.71484,17.71679 l 28.203158,0 z"
         id="path6126-7-2-4-8"
         transform="translate(-34.765132,309.21224)"
         inkscape:connector-curvature="0"
         sodipodi:nodetypes="cssccsscc" />
    </g>
    <g
       id="g4439-6-8-5-7"
       transform="matrix(-0.70710678,0.70710678,-0.70710678,-0.70710678,910.77653,794.92805)">
      <path
         style="fill:none;fill-opacity:1;stroke:#000000;stroke-width:0.5;stroke-linecap:round;stroke-linejoin:round;stroke-miterlimit:4;stroke-dasharray:none;stroke-opacity:1"
         d="m 100.81161,654.03669 -10.487308,0 c -4.90748,0 -8.85742,-3.94994 -8.85742,-8.85742 l -10e-7,-10.64062 -26.709018,-7e-5 -10e-7,28.34765 c 0,9.81496 7.89988,17.71679 17.71484,17.71679 l 28.203158,0 z"
         id="path6126-7-2-4-8-6"
         transform="translate(-34.765132,309.21224)"
         inkscape:connector-curvature="0"
         sodipodi:nodetypes="cssccsscc" />
    </g>
    <g
       id="g4439-6-8-3-8"
       transform="matrix(0,1,-1,0,1069.0448,-167.02388)">
      <path
         style="fill:none;fill-opacity:1;stroke:#000000;stroke-width:0.5;stroke-linecap:round;stroke-linejoin:round;stroke-miterlimit:4;stroke-dasharray:none;stroke-opacity:1"
         d="m 71.046478,969.24893 -10.487308,0 c -4.90748,0 -8.85742,-3.94994 -8.85742,-8.85742 l -10e-7,-10.64062 -26.709018,-7e-5 -10e-7,28.34765 c 0,9.81496 7.89988,17.71679 17.71484,17.71679 l 28.203158,0 z"
         id="path6126-7-2-4-3-2"
         inkscape:connector-curvature="0"
         sodipodi:nodetypes="cssccsscc" />
      <g
         id="g4439-6-8-5-03"
         transform="matrix(0,1,-1,0,1175.7998,978.15875)">
        <path
           style="fill:none;fill-opacity:1;stroke:#000000;stroke-width:0.5;stroke-linecap:round;stroke-linejoin:round;stroke-miterlimit:4;stroke-dasharray:none;stroke-opacity:1"
           d="m 100.81161,654.03669 -10.487308,0 c -4.90748,0 -8.85742,-3.94994 -8.85742,-8.85742 l -10e-7,-10.64062 -26.709018,-7e-5 -10e-7,28.34765 c 0,9.81496 7.89988,17.71679 17.71484,17.71679 l 28.203158,0 z"
           id="path6126-7-2-4-8-3"
           transform="translate(-34.765132,309.21224)"
           inkscape:connector-curvature="0"
           sodipodi:nodetypes="cssccsscc" />
      </g>
      <g
         id="g4439-6-8-5-6-45-0"
         transform="matrix(0,1,-1,0,1230.8995,954.94401)">
        <path
           style="fill:none;fill-opacity:1;stroke:#000000;stroke-width:0.5;stroke-linecap:round;stroke-linejoin:round;stroke-miterlimit:4;stroke-dasharray:none;stroke-opacity:1"
           d="m 100.81161,654.03669 -10.487308,0 c -4.90748,0 -8.85742,-3.94994 -8.85742,-8.85742 l -10e-7,-10.64062 -26.709018,-7e-5 -10e-7,28.34765 c 0,9.81496 7.89988,17.71679 17.71484,17.71679 l 28.203158,0 z"
           id="path6126-7-2-4-8-0-5-9"
           transform="translate(-34.765132,309.21224)"
           inkscape:connector-curvature="0"
           sodipodi:nodetypes="cssccsscc" />
      </g>
      <g
         id="g4439-6-8-5-76"
         transform="matrix(0,1,1,0,-661.02772,35.158753)">
        <path
           style="fill:none;fill-opacity:1;stroke:#000000;stroke-width:0.5;stroke-linecap:round;stroke-linejoin:round;stroke-miterlimit:4;stroke-dasharray:none;stroke-opacity:1"
           d="m 100.81161,654.03669 -10.487308,0 c -4.90748,0 -8.85742,-3.94994 -8.85742,-8.85742 l -10e-7,-10.64062 -26.709018,-7e-5 -10e-7,28.34765 c 0,9.81496 7.89988,17.71679 17.71484,17.71679 l 28.203158,0 z"
           id="path6126-7-2-4-8-85"
           transform="translate(-34.765132,309.21224)"
           inkscape:connector-curvature="0"
           sodipodi:nodetypes="cssccsscc" />
      </g>
      <path
         style="fill:none;fill-opacity:1;stroke:#000000;stroke-width:0.5;stroke-linecap:round;stroke-linejoin:round;stroke-miterlimit:4;stroke-dasharray:none;stroke-opacity:1"
         d="m 281.09484,16.382493 10.48731,0 c 4.90748,0 8.85742,-3.94994 8.85742,-8.8574202 l 0,-10.64062 26.70902,-7e-5 0,28.3476702 c 0,9.8149 -7.89988,17.7168 -17.71484,17.7168 l -28.20316,0 z"
         id="path6126-7-2-4-3-2-0"
         inkscape:connector-curvature="0"
         sodipodi:nodetypes="cssccsscc" />
      <g
         id="g4439-6-8-5-6-45-1"
         transform="matrix(0,1,1,0,-718.12742,7.9440128)">
        <path
           style="fill:none;fill-opacity:1;stroke:#000000;stroke-width:0.5;stroke-linecap:round;stroke-linejoin:round;stroke-miterlimit:4;stroke-dasharray:none;stroke-opacity:1"
           d="m 100.81161,654.03669 -10.487308,0 c -4.90748,0 -8.85742,-3.94994 -8.85742,-8.85742 l -10e-7,-10.64062 -26.709018,-7e-5 -10e-7,28.34765 c 0,9.81496 7.89988,17.71679 17.71484,17.71679 l 28.203158,0 z"
           id="path6126-7-2-4-8-0-5-92"
           transform="translate(-34.765132,309.21224)"
           inkscape:connector-curvature="0"
           sodipodi:nodetypes="cssccsscc" />
      </g>
      <g
         id="g4439-6-8-5-03-6"
         transform="matrix(-1,0,0,1,192.85576,-946.34559)">
        <path
           style="fill:none;fill-opacity:1;stroke:#000000;stroke-width:0.5;stroke-linecap:round;stroke-linejoin:round;stroke-miterlimit:4;stroke-dasharray:none;stroke-opacity:1"
           d="m 100.81161,654.03669 -10.487308,0 c -4.90748,0 -8.85742,-3.94994 -8.85742,-8.85742 l -10e-7,-10.64062 -26.709018,-7e-5 -10e-7,28.34765 c 0,9.81496 7.89988,17.71679 17.71484,17.71679 l 28.203158,0 z"
           id="path6126-7-2-4-8-3-1"
           transform="translate(-34.765132,309.21224)"
           inkscape:connector-curvature="0"
           sodipodi:nodetypes="cssccsscc" />
      </g>
      <g
         id="g4439-6-8-5-6-45-0-7"
         transform="matrix(-1,0,0,1,138.95556,-917.13087)">
        <path
           style="fill:none;fill-opacity:1;stroke:#000000;stroke-width:0.5;stroke-linecap:round;stroke-linejoin:round;stroke-miterlimit:4;stroke-dasharray:none;stroke-opacity:1"
           d="m 100.81161,654.03669 -10.487308,0 c -4.90748,0 -8.85742,-3.94994 -8.85742,-8.85742 l -10e-7,-10.64062 -26.709018,-7e-5 -10e-7,28.34765 c 0,9.81496 7.89988,17.71679 17.71484,17.71679 l 28.203158,0 z"
           id="path6126-7-2-4-8-0-5-9-1"
           transform="translate(-34.765132,309.21224)"
           inkscape:connector-curvature="0"
           sodipodi:nodetypes="cssccsscc" />
      </g>
    </g>
    <g
       id="g4439-6-8-5-6-45"
       transform="matrix(-1,0,0,-1,116.23435,909.2448)">
      <path
         style="fill:none;fill-opacity:1;stroke:#000000;stroke-width:0.5;stroke-linecap:round;stroke-linejoin:round;stroke-miterlimit:4;stroke-dasharray:none;stroke-opacity:1"
         d="m 100.81161,654.03669 -10.487308,0 c -4.90748,0 -8.85742,-3.94994 -8.85742,-8.85742 l -10e-7,-10.64062 -26.709018,-7e-5 -10e-7,28.34765 c 0,9.81496 7.89988,17.71679 17.71484,17.71679 l 28.203158,0 z"
         id="path6126-7-2-4-8-0-5"
         transform="translate(-34.765132,309.21224)"
         inkscape:connector-curvature="0"
         sodipodi:nodetypes="cssccsscc" />
    </g>
    <g
       id="g4439-6-8-5-7-1"
       transform="matrix(-0.70710678,-0.70710678,-0.70710678,0.70710678,1010.9903,-779.01473)">
      <path
         style="fill:none;fill-opacity:1;stroke:#000000;stroke-width:0.5;stroke-linecap:round;stroke-linejoin:round;stroke-miterlimit:4;stroke-dasharray:none;stroke-opacity:1"
         d="m 100.81161,654.03669 -10.487308,0 c -4.90748,0 -8.85742,-3.94994 -8.85742,-8.85742 l -10e-7,-10.64062 -26.709018,-7e-5 -10e-7,28.34765 c 0,9.81496 7.89988,17.71679 17.71484,17.71679 l 28.203158,0 z"
         id="path6126-7-2-4-8-6-24"
         transform="translate(-34.765132,309.21224)"
         inkscape:connector-curvature="0"
         sodipodi:nodetypes="cssccsscc" />
    </g>
    <g
       id="g4439-6-8-5-7-1-6"
       transform="matrix(-0.70710678,-0.70710678,-0.70710678,0.70710678,1208.9903,-779.01466)">
      <path
         style="fill:none;fill-opacity:1;stroke:#000000;stroke-width:0.5;stroke-linecap:round;stroke-linejoin:round;stroke-miterlimit:4;stroke-dasharray:none;stroke-opacity:1"
         d="m 100.81161,654.03669 -10.487308,0 c -4.90748,0 -8.85742,-3.94994 -8.85742,-8.85742 l -10e-7,-10.64062 -26.709018,-7e-5 -10e-7,28.34765 c 0,9.81496 7.89988,17.71679 17.71484,17.71679 l 28.203158,0 z"
         id="path6126-7-2-4-8-6-24-4"
         transform="translate(-34.765132,309.21224)"
         inkscape:connector-curvature="0"
         sodipodi:nodetypes="cssccsscc" />
    </g>
    <g
       id="g4439-6-8-5-7-1-3"
       transform="matrix(-0.70710678,-0.70710678,-0.70710678,0.70710678,1408.9903,-780.01466)">
      <path
         style="fill:none;fill-opacity:1;stroke:#000000;stroke-width:0.5;stroke-linecap:round;stroke-linejoin:round;stroke-miterlimit:4;stroke-dasharray:none;stroke-opacity:1"
         d="m 100.81161,654.03669 -10.487308,0 c -4.90748,0 -8.85742,-3.94994 -8.85742,-8.85742 l -10e-7,-10.64062 -26.709018,-7e-5 -10e-7,28.34765 c 0,9.81496 7.89988,17.71679 17.71484,17.71679 l 28.203158,0 z"
         id="path6126-7-2-4-8-6-24-9"
         transform="translate(-34.765132,309.21224)"
         inkscape:connector-curvature="0"
         sodipodi:nodetypes="cssccsscc" />
    </g>
    <g
       id="g4439-6-8-5-7-1-65"
       transform="matrix(-0.70710678,-0.70710678,-0.70710678,0.70710678,1606.9903,-781.01466)">
      <path
         style="fill:none;fill-opacity:1;stroke:#000000;stroke-width:0.5;stroke-linecap:round;stroke-linejoin:round;stroke-miterlimit:4;stroke-dasharray:none;stroke-opacity:1"
         d="m 100.81161,654.03669 -10.487308,0 c -4.90748,0 -8.85742,-3.94994 -8.85742,-8.85742 l -10e-7,-10.64062 -26.709018,-7e-5 -10e-7,28.34765 c 0,9.81496 7.89988,17.71679 17.71484,17.71679 l 28.203158,0 z"
         id="path6126-7-2-4-8-6-24-5"
         transform="translate(-34.765132,309.21224)"
         inkscape:connector-curvature="0"
         sodipodi:nodetypes="cssccsscc" />
    </g>
    <g
       id="g4439-6-8-5-7-1-0-7"
       transform="matrix(-0.70710678,0.70710678,-0.70710678,-0.70710678,1116.8994,798.989)">
      <path
         style="fill:none;fill-opacity:1;stroke:#000000;stroke-width:0.5;stroke-linecap:round;stroke-linejoin:round;stroke-miterlimit:4;stroke-dasharray:none;stroke-opacity:1"
         d="m 100.81161,654.03669 -10.487308,0 c -4.90748,0 -8.85742,-3.94994 -8.85742,-8.85742 l -10e-7,-10.64062 -26.709018,-7e-5 -10e-7,28.34765 c 0,9.81496 7.89988,17.71679 17.71484,17.71679 l 28.203158,0 z"
         id="path6126-7-2-4-8-6-24-2-9"
         transform="translate(-34.765132,309.21224)"
         inkscape:connector-curvature="0"
         sodipodi:nodetypes="cssccsscc" />
    </g>
    <g
       id="g4439-6-8-5-7-1-0-7-7"
       transform="matrix(-0.70710678,0.70710678,-0.70710678,-0.70710678,1500.7176,833.989)">
      <path
         style="fill:none;fill-opacity:1;stroke:#000000;stroke-width:0.5;stroke-linecap:round;stroke-linejoin:round;stroke-miterlimit:4;stroke-dasharray:none;stroke-opacity:1"
         d="m 100.81161,654.03669 -10.487308,0 c -4.90748,0 -8.85742,-3.94994 -8.85742,-8.85742 l -10e-7,-10.64062 -26.709018,-7e-5 -10e-7,28.34765 c 0,9.81496 7.89988,17.71679 17.71484,17.71679 l 28.203158,0 z"
         id="path6126-7-2-4-8-6-24-2-9-9"
         transform="translate(-34.765132,309.21224)"
         inkscape:connector-curvature="0"
         sodipodi:nodetypes="cssccsscc" />
    </g>
    <g
       id="g4439-6-8-5-7-1-0-7-0"
       transform="matrix(-0.70710678,0.70710678,-0.70710678,-0.70710678,757.9903,831.989)">
      <path
         style="fill:none;fill-opacity:1;stroke:#000000;stroke-width:0.5;stroke-linecap:round;stroke-linejoin:round;stroke-miterlimit:4;stroke-dasharray:none;stroke-opacity:1"
         d="m 100.81161,654.03669 -10.487308,0 c -4.90748,0 -8.85742,-3.94994 -8.85742,-8.85742 l -10e-7,-10.64062 -26.709018,-7e-5 -10e-7,28.34765 c 0,9.81496 7.89988,17.71679 17.71484,17.71679 l 28.203158,0 z"
         id="path6126-7-2-4-8-6-24-2-9-3"
         transform="translate(-34.765132,309.21224)"
         inkscape:connector-curvature="0"
         sodipodi:nodetypes="cssccsscc" />
    </g>
    <g
       id="g4439-6-8-5-7-1-0-7-7-7"
       transform="matrix(-0.70710678,0.70710678,-0.70710678,-0.70710678,863.80848,831.989)">
      <path
         style="fill:none;fill-opacity:1;stroke:#000000;stroke-width:0.5;stroke-linecap:round;stroke-linejoin:round;stroke-miterlimit:4;stroke-dasharray:none;stroke-opacity:1"
         d="m 100.81161,654.03669 -10.487308,0 c -4.90748,0 -8.85742,-3.94994 -8.85742,-8.85742 l -10e-7,-10.64062 -26.709018,-7e-5 -10e-7,28.34765 c 0,9.81496 7.89988,17.71679 17.71484,17.71679 l 28.203158,0 z"
         id="path6126-7-2-4-8-6-24-2-9-9-8"
         transform="translate(-34.765132,309.21224)"
         inkscape:connector-curvature="0"
         sodipodi:nodetypes="cssccsscc" />
    </g>
    <g
       id="g4439-6-8-5-7-1-0-7-1-1"
       transform="matrix(-0.70710678,0.70710678,-0.70710678,-0.70710678,969.6267,831.989)">
      <path
         style="fill:none;fill-opacity:1;stroke:#000000;stroke-width:0.5;stroke-linecap:round;stroke-linejoin:round;stroke-miterlimit:4;stroke-dasharray:none;stroke-opacity:1"
         d="m 100.81161,654.03669 -10.487308,0 c -4.90748,0 -8.85742,-3.94994 -8.85742,-8.85742 l -10e-7,-10.64062 -26.709018,-7e-5 -10e-7,28.34765 c 0,9.81496 7.89988,17.71679 17.71484,17.71679 l 28.203158,0 z"
         id="path6126-7-2-4-8-6-24-2-9-5-5"
         transform="translate(-34.765132,309.21224)"
         inkscape:connector-curvature="0"
         sodipodi:nodetypes="cssccsscc" />
    </g>
    <g
       id="g4439-6-8-5-7-1-0-7-8-9"
       transform="matrix(-0.70710678,0.70710678,-0.70710678,-0.70710678,1075.4449,831.989)">
      <path
         style="fill:none;fill-opacity:1;stroke:#000000;stroke-width:0.5;stroke-linecap:round;stroke-linejoin:round;stroke-miterlimit:4;stroke-dasharray:none;stroke-opacity:1"
         d="m 100.81161,654.03669 -10.487308,0 c -4.90748,0 -8.85742,-3.94994 -8.85742,-8.85742 l -10e-7,-10.64062 -26.709018,-7e-5 -10e-7,28.34765 c 0,9.81496 7.89988,17.71679 17.71484,17.71679 l 28.203158,0 z"
         id="path6126-7-2-4-8-6-24-2-9-8-0"
         transform="translate(-34.765132,309.21224)"
         inkscape:connector-curvature="0"
         sodipodi:nodetypes="cssccsscc" />
    </g>
    <g
       id="g4439-6-8-5-7-1-0-7-12-3"
       transform="matrix(-0.70710678,0.70710678,-0.70710678,-0.70710678,1289.0812,833.989)">
      <path
         style="fill:none;fill-opacity:1;stroke:#000000;stroke-width:0.5;stroke-linecap:round;stroke-linejoin:round;stroke-miterlimit:4;stroke-dasharray:none;stroke-opacity:1"
         d="m 100.81161,654.03669 -10.487308,0 c -4.90748,0 -8.85742,-3.94994 -8.85742,-8.85742 l -10e-7,-10.64062 -26.709018,-7e-5 -10e-7,28.34765 c 0,9.81496 7.89988,17.71679 17.71484,17.71679 l 28.203158,0 z"
         id="path6126-7-2-4-8-6-24-2-9-4-4"
         transform="translate(-34.765132,309.21224)"
         inkscape:connector-curvature="0"
         sodipodi:nodetypes="cssccsscc" />
    </g>
    <g
       id="g4439-6-8-5-7-1-0-7-83"
       transform="matrix(-0.70710678,-0.70710678,-0.70710678,0.70710678,1341.8994,-449.01473)">
      <path
         style="fill:none;fill-opacity:1;stroke:#000000;stroke-width:0.5;stroke-linecap:round;stroke-linejoin:round;stroke-miterlimit:4;stroke-dasharray:none;stroke-opacity:1"
         d="m 100.81161,654.03669 -10.487308,0 c -4.90748,0 -8.85742,-3.94994 -8.85742,-8.85742 l -10e-7,-10.64062 -26.709018,-7e-5 -10e-7,28.34765 c 0,9.81496 7.89988,17.71679 17.71484,17.71679 l 28.203158,0 z"
         id="path6126-7-2-4-8-6-24-2-9-51"
         transform="translate(-34.765132,309.21224)"
         inkscape:connector-curvature="0"
         sodipodi:nodetypes="cssccsscc" />
    </g>
    <g
       id="g4439-6-8-5-7-1-0-7-7-2"
       transform="matrix(-0.70710678,-0.70710678,-0.70710678,0.70710678,1447.7176,-449.01473)">
      <path
         style="fill:none;fill-opacity:1;stroke:#000000;stroke-width:0.5;stroke-linecap:round;stroke-linejoin:round;stroke-miterlimit:4;stroke-dasharray:none;stroke-opacity:1"
         d="m 100.81161,654.03669 -10.487308,0 c -4.90748,0 -8.85742,-3.94994 -8.85742,-8.85742 l -10e-7,-10.64062 -26.709018,-7e-5 -10e-7,28.34765 c 0,9.81496 7.89988,17.71679 17.71484,17.71679 l 28.203158,0 z"
         id="path6126-7-2-4-8-6-24-2-9-9-0"
         transform="translate(-34.765132,309.21224)"
         inkscape:connector-curvature="0"
         sodipodi:nodetypes="cssccsscc" />
    </g>
    <g
       id="g4439-6-8-5-7-1-0-7-1-4"
       transform="matrix(-0.70710678,-0.70710678,-0.70710678,0.70710678,1553.5358,-449.01473)">
      <path
         style="fill:none;fill-opacity:1;stroke:#000000;stroke-width:0.5;stroke-linecap:round;stroke-linejoin:round;stroke-miterlimit:4;stroke-dasharray:none;stroke-opacity:1"
         d="m 100.81161,654.03669 -10.487308,0 c -4.90748,0 -8.85742,-3.94994 -8.85742,-8.85742 l -10e-7,-10.64062 -26.709018,-7e-5 -10e-7,28.34765 c 0,9.81496 7.89988,17.71679 17.71484,17.71679 l 28.203158,0 z"
         id="path6126-7-2-4-8-6-24-2-9-5-2"
         transform="translate(-34.765132,309.21224)"
         inkscape:connector-curvature="0"
         sodipodi:nodetypes="cssccsscc" />
    </g>
    <g
       id="g4439-6-8-5-7-1-0-7-8-8"
       transform="matrix(-0.70710678,-0.70710678,-0.70710678,0.70710678,1659.3539,-449.01473)">
      <path
         style="fill:none;fill-opacity:1;stroke:#000000;stroke-width:0.5;stroke-linecap:round;stroke-linejoin:round;stroke-miterlimit:4;stroke-dasharray:none;stroke-opacity:1"
         d="m 100.81161,654.03669 -10.487308,0 c -4.90748,0 -8.85742,-3.94994 -8.85742,-8.85742 l -10e-7,-10.64062 -26.709018,-7e-5 -10e-7,28.34765 c 0,9.81496 7.89988,17.71679 17.71484,17.71679 l 28.203158,0 z"
         id="path6126-7-2-4-8-6-24-2-9-8-4"
         transform="translate(-34.765132,309.21224)"
         inkscape:connector-curvature="0"
         sodipodi:nodetypes="cssccsscc" />
    </g>
    <g
       id="g4439-6-8-5-7-1-0-7-11-4"
       transform="matrix(-0.70710678,-0.70710678,-0.70710678,0.70710678,1765.1722,-449.01473)">
      <path
         style="fill:none;fill-opacity:1;stroke:#000000;stroke-width:0.5;stroke-linecap:round;stroke-linejoin:round;stroke-miterlimit:4;stroke-dasharray:none;stroke-opacity:1"
         d="m 100.81161,654.03669 -10.487308,0 c -4.90748,0 -8.85742,-3.94994 -8.85742,-8.85742 l -10e-7,-10.64062 -26.709018,-7e-5 -10e-7,28.34765 c 0,9.81496 7.89988,17.71679 17.71484,17.71679 l 28.203158,0 z"
         id="path6126-7-2-4-8-6-24-2-9-89-6"
         transform="translate(-34.765132,309.21224)"
         inkscape:connector-curvature="0"
         sodipodi:nodetypes="cssccsscc" />
    </g>
    <g
       id="g4439-6-8-5-7-1-0-7-7-7-5"
       transform="matrix(-0.70710678,-0.70710678,-0.70710678,0.70710678,810.8085,-451.01473)">
      <path
         style="fill:none;fill-opacity:1;stroke:#000000;stroke-width:0.5;stroke-linecap:round;stroke-linejoin:round;stroke-miterlimit:4;stroke-dasharray:none;stroke-opacity:1"
         d="m 100.81161,654.03669 -10.487308,0 c -4.90748,0 -8.85742,-3.94994 -8.85742,-8.85742 l -10e-7,-10.64062 -26.709018,-7e-5 -10e-7,28.34765 c 0,9.81496 7.89988,17.71679 17.71484,17.71679 l 28.203158,0 z"
         id="path6126-7-2-4-8-6-24-2-9-9-8-9"
         transform="translate(-34.765132,309.21224)"
         inkscape:connector-curvature="0"
         sodipodi:nodetypes="cssccsscc" />
    </g>
    <g
       id="g4439-6-8-5-7-1-0-7-1-1-8"
       transform="matrix(-0.70710678,-0.70710678,-0.70710678,0.70710678,916.6267,-451.01473)">
      <path
         style="fill:none;fill-opacity:1;stroke:#000000;stroke-width:0.5;stroke-linecap:round;stroke-linejoin:round;stroke-miterlimit:4;stroke-dasharray:none;stroke-opacity:1"
         d="m 100.81161,654.03669 -10.487308,0 c -4.90748,0 -8.85742,-3.94994 -8.85742,-8.85742 l -10e-7,-10.64062 -26.709018,-7e-5 -10e-7,28.34765 c 0,9.81496 7.89988,17.71679 17.71484,17.71679 l 28.203158,0 z"
         id="path6126-7-2-4-8-6-24-2-9-5-5-1"
         transform="translate(-34.765132,309.21224)"
         inkscape:connector-curvature="0"
         sodipodi:nodetypes="cssccsscc" />
    </g>
    <g
       id="g4439-6-8-5-7-1-0-7-8-9-2"
       transform="matrix(-0.70710678,-0.70710678,-0.70710678,0.70710678,1022.4449,-451.01473)">
      <path
         style="fill:none;fill-opacity:1;stroke:#000000;stroke-width:0.5;stroke-linecap:round;stroke-linejoin:round;stroke-miterlimit:4;stroke-dasharray:none;stroke-opacity:1"
         d="m 100.81161,654.03669 -10.487308,0 c -4.90748,0 -8.85742,-3.94994 -8.85742,-8.85742 l -10e-7,-10.64062 -26.709018,-7e-5 -10e-7,28.34765 c 0,9.81496 7.89988,17.71679 17.71484,17.71679 l 28.203158,0 z"
         id="path6126-7-2-4-8-6-24-2-9-8-0-4"
         transform="translate(-34.765132,309.21224)"
         inkscape:connector-curvature="0"
         sodipodi:nodetypes="cssccsscc" />
    </g>
    <g
       id="g4439-6-8-5-7-1-0-7-11-0-3"
       transform="matrix(-0.70710678,-0.70710678,-0.70710678,0.70710678,1128.263,-451.01473)">
      <path
         style="fill:none;fill-opacity:1;stroke:#000000;stroke-width:0.5;stroke-linecap:round;stroke-linejoin:round;stroke-miterlimit:4;stroke-dasharray:none;stroke-opacity:1"
         d="m 100.81161,654.03669 -10.487308,0 c -4.90748,0 -8.85742,-3.94994 -8.85742,-8.85742 l -10e-7,-10.64062 -26.709018,-7e-5 -10e-7,28.34765 c 0,9.81496 7.89988,17.71679 17.71484,17.71679 l 28.203158,0 z"
         id="path6126-7-2-4-8-6-24-2-9-89-1-0"
         transform="translate(-34.765132,309.21224)"
         inkscape:connector-curvature="0"
         sodipodi:nodetypes="cssccsscc" />
    </g>
    <g
       id="g4439-6-8-5-7-1-0-7-12-3-4"
       transform="matrix(-0.70710678,-0.70710678,-0.70710678,0.70710678,1236.0812,-449.01473)">
      <path
         style="fill:none;fill-opacity:1;stroke:#000000;stroke-width:0.5;stroke-linecap:round;stroke-linejoin:round;stroke-miterlimit:4;stroke-dasharray:none;stroke-opacity:1"
         d="m 100.81161,654.03669 -10.487308,0 c -4.90748,0 -8.85742,-3.94994 -8.85742,-8.85742 l -10e-7,-10.64062 -26.709018,-7e-5 -10e-7,28.34765 c 0,9.81496 7.89988,17.71679 17.71484,17.71679 l 28.203158,0 z"
         id="path6126-7-2-4-8-6-24-2-9-4-4-0"
         transform="translate(-34.765132,309.21224)"
         inkscape:connector-curvature="0"
         sodipodi:nodetypes="cssccsscc" />
    </g>
    <g
       id="g4439-6-8-5-7-1-0-7-03"
       transform="matrix(-0.70710678,0.70710678,-0.70710678,-0.70710678,1393.3994,889.8641)">
      <path
         style="fill:none;fill-opacity:1;stroke:#000000;stroke-width:0.5;stroke-linecap:round;stroke-linejoin:round;stroke-miterlimit:4;stroke-dasharray:none;stroke-opacity:1"
         d="m 100.81161,654.03669 -10.487308,0 c -4.90748,0 -8.85742,-3.94994 -8.85742,-8.85742 l -10e-7,-10.64062 -26.709018,-7e-5 -10e-7,28.34765 c 0,9.81496 7.89988,17.71679 17.71484,17.71679 l 28.203158,0 z"
         id="path6126-7-2-4-8-6-24-2-9-1"
         transform="translate(-34.765132,309.21224)"
         inkscape:connector-curvature="0"
         sodipodi:nodetypes="cssccsscc" />
    </g>
    <g
       id="g4439-6-8-5-7-1-0-7-7-0"
       transform="matrix(-0.70710678,0.70710678,-0.70710678,-0.70710678,1499.2176,887.8641)">
      <path
         style="fill:none;fill-opacity:1;stroke:#000000;stroke-width:0.5;stroke-linecap:round;stroke-linejoin:round;stroke-miterlimit:4;stroke-dasharray:none;stroke-opacity:1"
         d="m 100.81161,654.03669 -10.487308,0 c -4.90748,0 -8.85742,-3.94994 -8.85742,-8.85742 l -10e-7,-10.64062 -26.709018,-7e-5 -10e-7,28.34765 c 0,9.81496 7.89988,17.71679 17.71484,17.71679 l 28.203158,0 z"
         id="path6126-7-2-4-8-6-24-2-9-9-82"
         transform="translate(-34.765132,309.21224)"
         inkscape:connector-curvature="0"
         sodipodi:nodetypes="cssccsscc" />
    </g>
    <g
       id="g4439-6-8-5-7-1-0-7-1-7"
       transform="matrix(-0.70710678,0.70710678,-0.70710678,-0.70710678,1605.0358,887.8641)">
      <path
         style="fill:none;fill-opacity:1;stroke:#000000;stroke-width:0.5;stroke-linecap:round;stroke-linejoin:round;stroke-miterlimit:4;stroke-dasharray:none;stroke-opacity:1"
         d="m 100.81161,654.03669 -10.487308,0 c -4.90748,0 -8.85742,-3.94994 -8.85742,-8.85742 l -10e-7,-10.64062 -26.709018,-7e-5 -10e-7,28.34765 c 0,9.81496 7.89988,17.71679 17.71484,17.71679 l 28.203158,0 z"
         id="path6126-7-2-4-8-6-24-2-9-5-0"
         transform="translate(-34.765132,309.21224)"
         inkscape:connector-curvature="0"
         sodipodi:nodetypes="cssccsscc" />
    </g>
    <g
       id="g4439-6-8-5-7-1-0-7-8-1"
       transform="matrix(-0.70710678,0.70710678,-0.70710678,-0.70710678,1710.8539,887.8641)">
      <path
         style="fill:none;fill-opacity:1;stroke:#000000;stroke-width:0.5;stroke-linecap:round;stroke-linejoin:round;stroke-miterlimit:4;stroke-dasharray:none;stroke-opacity:1"
         d="m 100.81161,654.03669 -10.487308,0 c -4.90748,0 -8.85742,-3.94994 -8.85742,-8.85742 l -10e-7,-10.64062 -26.709018,-7e-5 -10e-7,28.34765 c 0,9.81496 7.89988,17.71679 17.71484,17.71679 l 28.203158,0 z"
         id="path6126-7-2-4-8-6-24-2-9-8-7"
         transform="translate(-34.765132,309.21224)"
         inkscape:connector-curvature="0"
         sodipodi:nodetypes="cssccsscc" />
    </g>
    <g
       id="g4439-6-8-5-7-1-0-7-0-2"
       transform="matrix(-0.70710678,0.70710678,-0.70710678,-0.70710678,756.4903,885.8641)">
      <path
         style="fill:none;fill-opacity:1;stroke:#000000;stroke-width:0.5;stroke-linecap:round;stroke-linejoin:round;stroke-miterlimit:4;stroke-dasharray:none;stroke-opacity:1"
         d="m 100.81161,654.03669 -10.487308,0 c -4.90748,0 -8.85742,-3.94994 -8.85742,-8.85742 l -10e-7,-10.64062 -26.709018,-7e-5 -10e-7,28.34765 c 0,9.81496 7.89988,17.71679 17.71484,17.71679 l 28.203158,0 z"
         id="path6126-7-2-4-8-6-24-2-9-3-4"
         transform="translate(-34.765132,309.21224)"
         inkscape:connector-curvature="0"
         sodipodi:nodetypes="cssccsscc" />
    </g>
    <g
       id="g4439-6-8-5-7-1-0-7-7-7-4"
       transform="matrix(-0.70710678,0.70710678,-0.70710678,-0.70710678,862.3085,885.8641)">
      <path
         style="fill:none;fill-opacity:1;stroke:#000000;stroke-width:0.5;stroke-linecap:round;stroke-linejoin:round;stroke-miterlimit:4;stroke-dasharray:none;stroke-opacity:1"
         d="m 100.81161,654.03669 -10.487308,0 c -4.90748,0 -8.85742,-3.94994 -8.85742,-8.85742 l -10e-7,-10.64062 -26.709018,-7e-5 -10e-7,28.34765 c 0,9.81496 7.89988,17.71679 17.71484,17.71679 l 28.203158,0 z"
         id="path6126-7-2-4-8-6-24-2-9-9-8-3"
         transform="translate(-34.765132,309.21224)"
         inkscape:connector-curvature="0"
         sodipodi:nodetypes="cssccsscc" />
    </g>
    <g
       id="g4439-6-8-5-7-1-0-7-1-1-89"
       transform="matrix(-0.70710678,0.70710678,-0.70710678,-0.70710678,968.1267,885.8641)">
      <path
         style="fill:none;fill-opacity:1;stroke:#000000;stroke-width:0.5;stroke-linecap:round;stroke-linejoin:round;stroke-miterlimit:4;stroke-dasharray:none;stroke-opacity:1"
         d="m 100.81161,654.03669 -10.487308,0 c -4.90748,0 -8.85742,-3.94994 -8.85742,-8.85742 l -10e-7,-10.64062 -26.709018,-7e-5 -10e-7,28.34765 c 0,9.81496 7.89988,17.71679 17.71484,17.71679 l 28.203158,0 z"
         id="path6126-7-2-4-8-6-24-2-9-5-5-3"
         transform="translate(-34.765132,309.21224)"
         inkscape:connector-curvature="0"
         sodipodi:nodetypes="cssccsscc" />
    </g>
    <g
       id="g4439-6-8-5-7-1-0-7-8-9-8"
       transform="matrix(-0.70710678,0.70710678,-0.70710678,-0.70710678,1073.9449,885.8641)">
      <path
         style="fill:none;fill-opacity:1;stroke:#000000;stroke-width:0.5;stroke-linecap:round;stroke-linejoin:round;stroke-miterlimit:4;stroke-dasharray:none;stroke-opacity:1"
         d="m 100.81161,654.03669 -10.487308,0 c -4.90748,0 -8.85742,-3.94994 -8.85742,-8.85742 l -10e-7,-10.64062 -26.709018,-7e-5 -10e-7,28.34765 c 0,9.81496 7.89988,17.71679 17.71484,17.71679 l 28.203158,0 z"
         id="path6126-7-2-4-8-6-24-2-9-8-0-8"
         transform="translate(-34.765132,309.21224)"
         inkscape:connector-curvature="0"
         sodipodi:nodetypes="cssccsscc" />
    </g>
    <g
       id="g4439-6-8-5-7-1-0-7-11-0-6"
       transform="matrix(-0.70710678,0.70710678,-0.70710678,-0.70710678,1179.763,885.8641)">
      <path
         style="fill:none;fill-opacity:1;stroke:#000000;stroke-width:0.5;stroke-linecap:round;stroke-linejoin:round;stroke-miterlimit:4;stroke-dasharray:none;stroke-opacity:1"
         d="m 100.81161,654.03669 -10.487308,0 c -4.90748,0 -8.85742,-3.94994 -8.85742,-8.85742 l -10e-7,-10.64062 -26.709018,-7e-5 -10e-7,28.34765 c 0,9.81496 7.89988,17.71679 17.71484,17.71679 l 28.203158,0 z"
         id="path6126-7-2-4-8-6-24-2-9-89-1-07"
         transform="translate(-34.765132,309.21224)"
         inkscape:connector-curvature="0"
         sodipodi:nodetypes="cssccsscc" />
    </g>
    <g
       id="g4439-6-8-5-7-1-0-7-12-3-5"
       transform="matrix(-0.70710678,0.70710678,-0.70710678,-0.70710678,1287.5812,887.8641)">
      <path
         style="fill:none;fill-opacity:1;stroke:#000000;stroke-width:0.5;stroke-linecap:round;stroke-linejoin:round;stroke-miterlimit:4;stroke-dasharray:none;stroke-opacity:1"
         d="m 100.81161,654.03669 -10.487308,0 c -4.90748,0 -8.85742,-3.94994 -8.85742,-8.85742 l -10e-7,-10.64062 -26.709018,-7e-5 -10e-7,28.34765 c 0,9.81496 7.89988,17.71679 17.71484,17.71679 l 28.203158,0 z"
         id="path6126-7-2-4-8-6-24-2-9-4-4-5"
         transform="translate(-34.765132,309.21224)"
         inkscape:connector-curvature="0"
         sodipodi:nodetypes="cssccsscc" />
    </g>
    <g
       id="g4439-6-8-5-7-1-0-7-83-6"
       transform="matrix(-0.70710678,-0.70710678,-0.70710678,0.70710678,1340.3994,-395.13965)">
      <path
         style="fill:none;fill-opacity:1;stroke:#000000;stroke-width:0.5;stroke-linecap:round;stroke-linejoin:round;stroke-miterlimit:4;stroke-dasharray:none;stroke-opacity:1"
         d="m 100.81161,654.03669 -10.487308,0 c -4.90748,0 -8.85742,-3.94994 -8.85742,-8.85742 l -10e-7,-10.64062 -26.709018,-7e-5 -10e-7,28.34765 c 0,9.81496 7.89988,17.71679 17.71484,17.71679 l 28.203158,0 z"
         id="path6126-7-2-4-8-6-24-2-9-51-3"
         transform="translate(-34.765132,309.21224)"
         inkscape:connector-curvature="0"
         sodipodi:nodetypes="cssccsscc" />
    </g>
    <g
       id="g4439-6-8-5-7-1-0-7-7-2-9"
       transform="matrix(-0.70710678,-0.70710678,-0.70710678,0.70710678,1446.2176,-395.13965)">
      <path
         style="fill:none;fill-opacity:1;stroke:#000000;stroke-width:0.5;stroke-linecap:round;stroke-linejoin:round;stroke-miterlimit:4;stroke-dasharray:none;stroke-opacity:1"
         d="m 100.81161,654.03669 -10.487308,0 c -4.90748,0 -8.85742,-3.94994 -8.85742,-8.85742 l -10e-7,-10.64062 -26.709018,-7e-5 -10e-7,28.34765 c 0,9.81496 7.89988,17.71679 17.71484,17.71679 l 28.203158,0 z"
         id="path6126-7-2-4-8-6-24-2-9-9-0-1"
         transform="translate(-34.765132,309.21224)"
         inkscape:connector-curvature="0"
         sodipodi:nodetypes="cssccsscc" />
    </g>
    <g
       id="g4439-6-8-5-7-1-0-7-1-4-3"
       transform="matrix(-0.70710678,-0.70710678,-0.70710678,0.70710678,1552.0358,-395.13965)">
      <path
         style="fill:none;fill-opacity:1;stroke:#000000;stroke-width:0.5;stroke-linecap:round;stroke-linejoin:round;stroke-miterlimit:4;stroke-dasharray:none;stroke-opacity:1"
         d="m 100.81161,654.03669 -10.487308,0 c -4.90748,0 -8.85742,-3.94994 -8.85742,-8.85742 l -10e-7,-10.64062 -26.709018,-7e-5 -10e-7,28.34765 c 0,9.81496 7.89988,17.71679 17.71484,17.71679 l 28.203158,0 z"
         id="path6126-7-2-4-8-6-24-2-9-5-2-8"
         transform="translate(-34.765132,309.21224)"
         inkscape:connector-curvature="0"
         sodipodi:nodetypes="cssccsscc" />
    </g>
    <g
       id="g4439-6-8-5-7-1-0-7-8-8-6"
       transform="matrix(-0.70710678,-0.70710678,-0.70710678,0.70710678,1657.8539,-395.13965)">
      <path
         style="fill:none;fill-opacity:1;stroke:#000000;stroke-width:0.5;stroke-linecap:round;stroke-linejoin:round;stroke-miterlimit:4;stroke-dasharray:none;stroke-opacity:1"
         d="m 100.81161,654.03669 -10.487308,0 c -4.90748,0 -8.85742,-3.94994 -8.85742,-8.85742 l -10e-7,-10.64062 -26.709018,-7e-5 -10e-7,28.34765 c 0,9.81496 7.89988,17.71679 17.71484,17.71679 l 28.203158,0 z"
         id="path6126-7-2-4-8-6-24-2-9-8-4-8"
         transform="translate(-34.765132,309.21224)"
         inkscape:connector-curvature="0"
         sodipodi:nodetypes="cssccsscc" />
    </g>
    <g
       id="g4439-6-8-5-7-1-0-7-11-4-6"
       transform="matrix(-0.70710678,-0.70710678,-0.70710678,0.70710678,1763.6722,-395.13965)">
      <path
         style="fill:none;fill-opacity:1;stroke:#000000;stroke-width:0.5;stroke-linecap:round;stroke-linejoin:round;stroke-miterlimit:4;stroke-dasharray:none;stroke-opacity:1"
         d="m 100.81161,654.03669 -10.487308,0 c -4.90748,0 -8.85742,-3.94994 -8.85742,-8.85742 l -10e-7,-10.64062 -26.709018,-7e-5 -10e-7,28.34765 c 0,9.81496 7.89988,17.71679 17.71484,17.71679 l 28.203158,0 z"
         id="path6126-7-2-4-8-6-24-2-9-89-6-9"
         transform="translate(-34.765132,309.21224)"
         inkscape:connector-curvature="0"
         sodipodi:nodetypes="cssccsscc" />
    </g>
    <g
       id="g4439-6-8-5-7-1-0-7-7-7-5-4"
       transform="matrix(-0.70710678,-0.70710678,-0.70710678,0.70710678,809.3085,-397.13965)">
      <path
         style="fill:none;fill-opacity:1;stroke:#000000;stroke-width:0.5;stroke-linecap:round;stroke-linejoin:round;stroke-miterlimit:4;stroke-dasharray:none;stroke-opacity:1"
         d="m 100.81161,654.03669 -10.487308,0 c -4.90748,0 -8.85742,-3.94994 -8.85742,-8.85742 l -10e-7,-10.64062 -26.709018,-7e-5 -10e-7,28.34765 c 0,9.81496 7.89988,17.71679 17.71484,17.71679 l 28.203158,0 z"
         id="path6126-7-2-4-8-6-24-2-9-9-8-9-8"
         transform="translate(-34.765132,309.21224)"
         inkscape:connector-curvature="0"
         sodipodi:nodetypes="cssccsscc" />
    </g>
    <g
       id="g4439-6-8-5-7-1-0-7-1-1-8-2"
       transform="matrix(-0.70710678,-0.70710678,-0.70710678,0.70710678,915.1267,-397.13965)">
      <path
         style="fill:none;fill-opacity:1;stroke:#000000;stroke-width:0.5;stroke-linecap:round;stroke-linejoin:round;stroke-miterlimit:4;stroke-dasharray:none;stroke-opacity:1"
         d="m 100.81161,654.03669 -10.487308,0 c -4.90748,0 -8.85742,-3.94994 -8.85742,-8.85742 l -10e-7,-10.64062 -26.709018,-7e-5 -10e-7,28.34765 c 0,9.81496 7.89988,17.71679 17.71484,17.71679 l 28.203158,0 z"
         id="path6126-7-2-4-8-6-24-2-9-5-5-1-9"
         transform="translate(-34.765132,309.21224)"
         inkscape:connector-curvature="0"
         sodipodi:nodetypes="cssccsscc" />
    </g>
    <g
       id="g4439-6-8-5-7-1-0-7-8-9-2-8"
       transform="matrix(-0.70710678,-0.70710678,-0.70710678,0.70710678,1020.9449,-397.13965)">
      <path
         style="fill:none;fill-opacity:1;stroke:#000000;stroke-width:0.5;stroke-linecap:round;stroke-linejoin:round;stroke-miterlimit:4;stroke-dasharray:none;stroke-opacity:1"
         d="m 100.81161,654.03669 -10.487308,0 c -4.90748,0 -8.85742,-3.94994 -8.85742,-8.85742 l -10e-7,-10.64062 -26.709018,-7e-5 -10e-7,28.34765 c 0,9.81496 7.89988,17.71679 17.71484,17.71679 l 28.203158,0 z"
         id="path6126-7-2-4-8-6-24-2-9-8-0-4-7"
         transform="translate(-34.765132,309.21224)"
         inkscape:connector-curvature="0"
         sodipodi:nodetypes="cssccsscc" />
    </g>
    <g
       id="g4439-6-8-5-7-1-0-7-11-0-3-8"
       transform="matrix(-0.70710678,-0.70710678,-0.70710678,0.70710678,1126.763,-397.13965)">
      <path
         style="fill:none;fill-opacity:1;stroke:#000000;stroke-width:0.5;stroke-linecap:round;stroke-linejoin:round;stroke-miterlimit:4;stroke-dasharray:none;stroke-opacity:1"
         d="m 100.81161,654.03669 -10.487308,0 c -4.90748,0 -8.85742,-3.94994 -8.85742,-8.85742 l -10e-7,-10.64062 -26.709018,-7e-5 -10e-7,28.34765 c 0,9.81496 7.89988,17.71679 17.71484,17.71679 l 28.203158,0 z"
         id="path6126-7-2-4-8-6-24-2-9-89-1-0-1"
         transform="translate(-34.765132,309.21224)"
         inkscape:connector-curvature="0"
         sodipodi:nodetypes="cssccsscc" />
    </g>
    <g
       id="g4439-6-8-5-7-1-0-7-12-3-4-4"
       transform="matrix(-0.70710678,-0.70710678,-0.70710678,0.70710678,1234.5812,-395.13965)">
      <path
         style="fill:none;fill-opacity:1;stroke:#000000;stroke-width:0.5;stroke-linecap:round;stroke-linejoin:round;stroke-miterlimit:4;stroke-dasharray:none;stroke-opacity:1"
         d="m 100.81161,654.03669 -10.487308,0 c -4.90748,0 -8.85742,-3.94994 -8.85742,-8.85742 l -10e-7,-10.64062 -26.709018,-7e-5 -10e-7,28.34765 c 0,9.81496 7.89988,17.71679 17.71484,17.71679 l 28.203158,0 z"
         id="path6126-7-2-4-8-6-24-2-9-4-4-0-4"
         transform="translate(-34.765132,309.21224)"
         inkscape:connector-curvature="0"
         sodipodi:nodetypes="cssccsscc" />
    </g>
    <g
       id="g4439-6-8-5-7-1-0-7-4"
       transform="matrix(-0.70710678,0.70710678,-0.70710678,-0.70710678,1393.3994,940.8641)">
      <path
         style="fill:none;fill-opacity:1;stroke:#000000;stroke-width:0.5;stroke-linecap:round;stroke-linejoin:round;stroke-miterlimit:4;stroke-dasharray:none;stroke-opacity:1"
         d="m 100.81161,654.03669 -10.487308,0 c -4.90748,0 -8.85742,-3.94994 -8.85742,-8.85742 l -10e-7,-10.64062 -26.709018,-7e-5 -10e-7,28.34765 c 0,9.81496 7.89988,17.71679 17.71484,17.71679 l 28.203158,0 z"
         id="path6126-7-2-4-8-6-24-2-9-36"
         transform="translate(-34.765132,309.21224)"
         inkscape:connector-curvature="0"
         sodipodi:nodetypes="cssccsscc" />
    </g>
    <g
       id="g4439-6-8-5-7-1-0-7-7-5"
       transform="matrix(-0.70710678,0.70710678,-0.70710678,-0.70710678,1499.2176,940.8641)">
      <path
         style="fill:none;fill-opacity:1;stroke:#000000;stroke-width:0.5;stroke-linecap:round;stroke-linejoin:round;stroke-miterlimit:4;stroke-dasharray:none;stroke-opacity:1"
         d="m 100.81161,654.03669 -10.487308,0 c -4.90748,0 -8.85742,-3.94994 -8.85742,-8.85742 l -10e-7,-10.64062 -26.709018,-7e-5 -10e-7,28.34765 c 0,9.81496 7.89988,17.71679 17.71484,17.71679 l 28.203158,0 z"
         id="path6126-7-2-4-8-6-24-2-9-9-6"
         transform="translate(-34.765132,309.21224)"
         inkscape:connector-curvature="0"
         sodipodi:nodetypes="cssccsscc" />
    </g>
    <g
       id="g4439-6-8-5-7-1-0-7-1-79"
       transform="matrix(-0.70710678,0.70710678,-0.70710678,-0.70710678,1605.0358,940.8641)">
      <path
         style="fill:none;fill-opacity:1;stroke:#000000;stroke-width:0.5;stroke-linecap:round;stroke-linejoin:round;stroke-miterlimit:4;stroke-dasharray:none;stroke-opacity:1"
         d="m 100.81161,654.03669 -10.487308,0 c -4.90748,0 -8.85742,-3.94994 -8.85742,-8.85742 l -10e-7,-10.64062 -26.709018,-7e-5 -10e-7,28.34765 c 0,9.81496 7.89988,17.71679 17.71484,17.71679 l 28.203158,0 z"
         id="path6126-7-2-4-8-6-24-2-9-5-52"
         transform="translate(-34.765132,309.21224)"
         inkscape:connector-curvature="0"
         sodipodi:nodetypes="cssccsscc" />
    </g>
    <g
       id="g4439-6-8-5-7-1-0-7-8-7"
       transform="matrix(-0.70710678,0.70710678,-0.70710678,-0.70710678,1710.8539,940.8641)">
      <path
         style="fill:none;fill-opacity:1;stroke:#000000;stroke-width:0.5;stroke-linecap:round;stroke-linejoin:round;stroke-miterlimit:4;stroke-dasharray:none;stroke-opacity:1"
         d="m 100.81161,654.03669 -10.487308,0 c -4.90748,0 -8.85742,-3.94994 -8.85742,-8.85742 l -10e-7,-10.64062 -26.709018,-7e-5 -10e-7,28.34765 c 0,9.81496 7.89988,17.71679 17.71484,17.71679 l 28.203158,0 z"
         id="path6126-7-2-4-8-6-24-2-9-8-9"
         transform="translate(-34.765132,309.21224)"
         inkscape:connector-curvature="0"
         sodipodi:nodetypes="cssccsscc" />
    </g>
    <g
       id="g4439-6-8-5-7-1-0-7-0-47"
       transform="matrix(-0.70710678,0.70710678,-0.70710678,-0.70710678,756.4903,938.8641)">
      <path
         style="fill:none;fill-opacity:1;stroke:#000000;stroke-width:0.5;stroke-linecap:round;stroke-linejoin:round;stroke-miterlimit:4;stroke-dasharray:none;stroke-opacity:1"
         d="m 100.81161,654.03669 -10.487308,0 c -4.90748,0 -8.85742,-3.94994 -8.85742,-8.85742 l -10e-7,-10.64062 -26.709018,-7e-5 -10e-7,28.34765 c 0,9.81496 7.89988,17.71679 17.71484,17.71679 l 28.203158,0 z"
         id="path6126-7-2-4-8-6-24-2-9-3-43"
         transform="translate(-34.765132,309.21224)"
         inkscape:connector-curvature="0"
         sodipodi:nodetypes="cssccsscc" />
    </g>
    <g
       id="g4439-6-8-5-7-1-0-7-7-7-0"
       transform="matrix(-0.70710678,0.70710678,-0.70710678,-0.70710678,862.30848,938.8641)">
      <path
         style="fill:none;fill-opacity:1;stroke:#000000;stroke-width:0.5;stroke-linecap:round;stroke-linejoin:round;stroke-miterlimit:4;stroke-dasharray:none;stroke-opacity:1"
         d="m 100.81161,654.03669 -10.487308,0 c -4.90748,0 -8.85742,-3.94994 -8.85742,-8.85742 l -10e-7,-10.64062 -26.709018,-7e-5 -10e-7,28.34765 c 0,9.81496 7.89988,17.71679 17.71484,17.71679 l 28.203158,0 z"
         id="path6126-7-2-4-8-6-24-2-9-9-8-0"
         transform="translate(-34.765132,309.21224)"
         inkscape:connector-curvature="0"
         sodipodi:nodetypes="cssccsscc" />
    </g>
    <g
       id="g4439-6-8-5-7-1-0-7-1-1-4"
       transform="matrix(-0.70710678,0.70710678,-0.70710678,-0.70710678,968.1267,938.8641)">
      <path
         style="fill:none;fill-opacity:1;stroke:#000000;stroke-width:0.5;stroke-linecap:round;stroke-linejoin:round;stroke-miterlimit:4;stroke-dasharray:none;stroke-opacity:1"
         d="m 100.81161,654.03669 -10.487308,0 c -4.90748,0 -8.85742,-3.94994 -8.85742,-8.85742 l -10e-7,-10.64062 -26.709018,-7e-5 -10e-7,28.34765 c 0,9.81496 7.89988,17.71679 17.71484,17.71679 l 28.203158,0 z"
         id="path6126-7-2-4-8-6-24-2-9-5-5-4"
         transform="translate(-34.765132,309.21224)"
         inkscape:connector-curvature="0"
         sodipodi:nodetypes="cssccsscc" />
    </g>
    <g
       id="g4439-6-8-5-7-1-0-7-8-9-22"
       transform="matrix(-0.70710678,0.70710678,-0.70710678,-0.70710678,1073.9449,938.8641)">
      <path
         style="fill:none;fill-opacity:1;stroke:#000000;stroke-width:0.5;stroke-linecap:round;stroke-linejoin:round;stroke-miterlimit:4;stroke-dasharray:none;stroke-opacity:1"
         d="m 100.81161,654.03669 -10.487308,0 c -4.90748,0 -8.85742,-3.94994 -8.85742,-8.85742 l -10e-7,-10.64062 -26.709018,-7e-5 -10e-7,28.34765 c 0,9.81496 7.89988,17.71679 17.71484,17.71679 l 28.203158,0 z"
         id="path6126-7-2-4-8-6-24-2-9-8-0-7"
         transform="translate(-34.765132,309.21224)"
         inkscape:connector-curvature="0"
         sodipodi:nodetypes="cssccsscc" />
    </g>
    <g
       id="g4439-6-8-5-7-1-0-7-11-0-7"
       transform="matrix(-0.70710678,0.70710678,-0.70710678,-0.70710678,1179.763,938.8641)">
      <path
         style="fill:none;fill-opacity:1;stroke:#000000;stroke-width:0.5;stroke-linecap:round;stroke-linejoin:round;stroke-miterlimit:4;stroke-dasharray:none;stroke-opacity:1"
         d="m 100.81161,654.03669 -10.487308,0 c -4.90748,0 -8.85742,-3.94994 -8.85742,-8.85742 l -10e-7,-10.64062 -26.709018,-7e-5 -10e-7,28.34765 c 0,9.81496 7.89988,17.71679 17.71484,17.71679 l 28.203158,0 z"
         id="path6126-7-2-4-8-6-24-2-9-89-1-04"
         transform="translate(-34.765132,309.21224)"
         inkscape:connector-curvature="0"
         sodipodi:nodetypes="cssccsscc" />
    </g>
    <g
       id="g4439-6-8-5-7-1-0-7-12-3-7"
       transform="matrix(-0.70710678,0.70710678,-0.70710678,-0.70710678,1287.5812,940.8641)">
      <path
         style="fill:none;fill-opacity:1;stroke:#000000;stroke-width:0.5;stroke-linecap:round;stroke-linejoin:round;stroke-miterlimit:4;stroke-dasharray:none;stroke-opacity:1"
         d="m 100.81161,654.03669 -10.487308,0 c -4.90748,0 -8.85742,-3.94994 -8.85742,-8.85742 l -10e-7,-10.64062 -26.709018,-7e-5 -10e-7,28.34765 c 0,9.81496 7.89988,17.71679 17.71484,17.71679 l 28.203158,0 z"
         id="path6126-7-2-4-8-6-24-2-9-4-4-4"
         transform="translate(-34.765132,309.21224)"
         inkscape:connector-curvature="0"
         sodipodi:nodetypes="cssccsscc" />
    </g>
    <g
       id="g4439-6-8-5-7-1-0-7-1-4-5"
       transform="matrix(-0.70710678,-0.70710678,-0.70710678,0.70710678,1394.9903,-471.01466)">
      <path
         style="fill:none;fill-opacity:1;stroke:#000000;stroke-width:0.5;stroke-linecap:round;stroke-linejoin:round;stroke-miterlimit:4;stroke-dasharray:none;stroke-opacity:1"
         d="m 100.81161,654.03669 -10.487308,0 c -4.90748,0 -8.85742,-3.94994 -8.85742,-8.85742 l -10e-7,-10.64062 -26.709018,-7e-5 -10e-7,28.34765 c 0,9.81496 7.89988,17.71679 17.71484,17.71679 l 28.203158,0 z"
         id="path6126-7-2-4-8-6-24-2-9-5-2-80"
         transform="translate(-34.765132,309.21224)"
         inkscape:connector-curvature="0"
         sodipodi:nodetypes="cssccsscc" />
    </g>
    <g
       id="g4439-6-8-5-7-1-0-7-11-0-7-0"
       transform="matrix(-0.70710678,0.70710678,-0.70710678,-0.70710678,1183.9903,837.73908)">
      <path
         style="fill:none;fill-opacity:1;stroke:#000000;stroke-width:0.5;stroke-linecap:round;stroke-linejoin:round;stroke-miterlimit:4;stroke-dasharray:none;stroke-opacity:1"
         d="m 100.81161,654.03669 -10.487308,0 c -4.90748,0 -8.85742,-3.94994 -8.85742,-8.85742 l -10e-7,-10.64062 -26.709018,-7e-5 -10e-7,28.34765 c 0,9.81496 7.89988,17.71679 17.71484,17.71679 l 28.203158,0 z"
         id="path6126-7-2-4-8-6-24-2-9-89-1-04-8"
         transform="translate(-34.765132,309.21224)"
         inkscape:connector-curvature="0"
         sodipodi:nodetypes="cssccsscc" />
    </g>
    <g
       id="g4439-6-8-5-7-1-0-7-1-79-8"
       transform="matrix(-0.70710678,0.70710678,-0.70710678,-0.70710678,1604.9903,835.73908)">
      <path
         style="fill:none;fill-opacity:1;stroke:#000000;stroke-width:0.5;stroke-linecap:round;stroke-linejoin:round;stroke-miterlimit:4;stroke-dasharray:none;stroke-opacity:1"
         d="m 100.81161,654.03669 -10.487308,0 c -4.90748,0 -8.85742,-3.94994 -8.85742,-8.85742 l -10e-7,-10.64062 -26.709018,-7e-5 -10e-7,28.34765 c 0,9.81496 7.89988,17.71679 17.71484,17.71679 l 28.203158,0 z"
         id="path6126-7-2-4-8-6-24-2-9-5-52-2"
         transform="translate(-34.765132,309.21224)"
         inkscape:connector-curvature="0"
         sodipodi:nodetypes="cssccsscc" />
    </g>
    <g
       id="g4439-6-8-5-7-1-0-7-1-79-9"
       transform="matrix(-0.81915204,0.57357644,-0.57357644,-0.81915204,1388.3493,903.67142)">
      <path
         style="fill:none;fill-opacity:1;stroke:#000000;stroke-width:0.5;stroke-linecap:round;stroke-linejoin:round;stroke-miterlimit:4;stroke-dasharray:none;stroke-opacity:1"
         d="m 100.81161,654.03669 -10.487308,0 c -4.90748,0 -8.85742,-3.94994 -8.85742,-8.85742 l -10e-7,-10.64062 -26.709018,-7e-5 -10e-7,28.34765 c 0,9.81496 7.89988,17.71679 17.71484,17.71679 l 28.203158,0 z"
         id="path6126-7-2-4-8-6-24-2-9-5-52-1"
         transform="translate(-34.765132,309.21224)"
         inkscape:connector-curvature="0"
         sodipodi:nodetypes="cssccsscc" />
    </g>
    <g
       id="g4439-6-8-5-7-1-0-7-1-79-9-4"
       transform="matrix(-0.90630778,0.42261827,-0.42261827,-0.90630778,1045.1537,995.41944)">
      <path
         style="fill:none;fill-opacity:1;stroke:#000000;stroke-width:0.5;stroke-linecap:round;stroke-linejoin:round;stroke-miterlimit:4;stroke-dasharray:none;stroke-opacity:1"
         d="m 100.81161,654.03669 -10.487308,0 c -4.90748,0 -8.85742,-3.94994 -8.85742,-8.85742 l -10e-7,-10.64062 -26.709018,-7e-5 -10e-7,28.34765 c 0,9.81496 7.89988,17.71679 17.71484,17.71679 l 28.203158,0 z"
         id="path6126-7-2-4-8-6-24-2-9-5-52-1-0"
         transform="translate(-34.765132,309.21224)"
         inkscape:connector-curvature="0"
         sodipodi:nodetypes="cssccsscc" />
    </g>
    <rect
       style="fill:none;fill-opacity:1;stroke:#000000;stroke-width:0.49985054;stroke-linecap:round;stroke-linejoin:round;stroke-miterlimit:4;stroke-dasharray:none;stroke-opacity:1"
       id="rect7450"
       width="495.56314"
       height="169.57889"
       x="296.40341"
       y="311.88507" />
    <rect
       style="fill:none;fill-opacity:1;stroke:#000000;stroke-width:0.49997026;stroke-linecap:round;stroke-linejoin:round;stroke-miterlimit:4;stroke-dasharray:none;stroke-opacity:1"
       id="rect7450-0-7"
       width="77.807114"
       height="272.33469"
       x="-389.59631"
       y="15.598016"
       transform="matrix(0,-1,1,0,0,0)" />
    <rect
       style="fill:none;fill-opacity:1;stroke:#000000;stroke-width:0.5;stroke-linecap:round;stroke-linejoin:round;stroke-miterlimit:4;stroke-dasharray:none;stroke-opacity:1"
       id="rect7450-0-7-6"
       width="272.33331"
       height="262.41208"
       x="804.97766"
       y="584.9118" />
    <rect
       style="fill:none;fill-opacity:1;stroke:#000000;stroke-width:0.5;stroke-linecap:round;stroke-linejoin:round;stroke-miterlimit:4;stroke-dasharray:none;stroke-opacity:1"
       id="rect7450-0-7-6-3"
       width="272.33331"
       height="262.41208"
       x="805.68945"
       y="312.92157" />
    <rect
       style="fill:none;fill-opacity:1;stroke:#000000;stroke-width:0.50047308;stroke-linecap:round;stroke-linejoin:round;stroke-miterlimit:4;stroke-dasharray:none;stroke-opacity:1"
       id="rect7450-0-7-6-3-7"
       width="1006.8618"
       height="272.33417"
       x="-860.59192"
       y="1089.3372"
       transform="matrix(0,-1,1,0,0,0)" />
    <rect
       style="fill:none;fill-opacity:1;stroke:#000000;stroke-width:0.49997026;stroke-linecap:round;stroke-linejoin:round;stroke-miterlimit:4;stroke-dasharray:none;stroke-opacity:1"
       id="rect7450-0-7-63"
       width="77.807114"
       height="272.33469"
       x="-475.29608"
       y="15.739289"
       transform="matrix(0,-1,1,0,0,0)" />
  </g>
</svg>
