<?xml version="1.0" encoding="UTF-8" standalone="no"?>
<!-- Created with Inkscape (http://www.inkscape.org/) -->

<svg
   xmlns:dc="http://purl.org/dc/elements/1.1/"
   xmlns:cc="http://creativecommons.org/ns#"
   xmlns:rdf="http://www.w3.org/1999/02/22-rdf-syntax-ns#"
   xmlns:svg="http://www.w3.org/2000/svg"
   xmlns="http://www.w3.org/2000/svg"
   xmlns:sodipodi="http://sodipodi.sourceforge.net/DTD/sodipodi-0.dtd"
   xmlns:inkscape="http://www.inkscape.org/namespaces/inkscape"
   width="210mm"
   height="297mm"
   viewBox="0 0 744.09448819 1052.3622047"
   id="svg2"
   version="1.1"
   inkscape:version="0.91 r13725"
   sodipodi:docname="TileCenter.svg">
  <defs
     id="defs4" />
  <sodipodi:namedview
     id="base"
     pagecolor="#ffffff"
     bordercolor="#666666"
     borderopacity="1.0"
     inkscape:pageopacity="0.0"
     inkscape:pageshadow="2"
     inkscape:zoom="3.959798"
     inkscape:cx="82.61846"
     inkscape:cy="877.13918"
     inkscape:document-units="px"
     inkscape:current-layer="layer1"
     showgrid="false"
     inkscape:window-width="2498"
     inkscape:window-height="1577"
     inkscape:window-x="54"
     inkscape:window-y="175"
     inkscape:window-maximized="1" />
  <metadata
     id="metadata7">
    <rdf:RDF>
      <cc:Work
         rdf:about="">
        <dc:format>image/svg+xml</dc:format>
        <dc:type
           rdf:resource="http://purl.org/dc/dcmitype/StillImage" />
        <dc:title></dc:title>
      </cc:Work>
    </rdf:RDF>
  </metadata>
  <g
     inkscape:label="Layer 1"
     inkscape:groupmode="layer"
     id="layer1">
    <path
       style="fill:none;fill-opacity:1;stroke:#000000;stroke-width:0.35433072;stroke-linecap:round;stroke-linejoin:round;stroke-miterlimit:4;stroke-dasharray:none;stroke-opacity:1"
       d="M 41.617861,9.1356384 A 31.720192,31.720192 0 0 0 9.8991118,40.856336 a 31.720192,31.720192 0 0 0 0.00586,0.15626 31.720192,31.720192 0 0 0 0,0.01171 l 0,56.36719 c 0,1.95215 1.5712872,3.523444 3.5234372,3.523444 l 3.386719,0 0,-4.859384 c -1.056166,-0.61193 -1.771485,-1.74123 -1.771485,-3.05468 l 0,-35.4336 c 0,-1.96299 1.579977,-3.54297 3.542969,-3.54297 l 46.062499,0 c 1.96299,0 3.54492,1.57998 3.54492,3.54297 l 0,35.4336 c 0,1.31305 -0.71527,2.44262 -1.77148,3.05468 l 0,4.859384 3.38476,0 c 1.95215,0 3.52539,-1.571294 3.5254,-3.523444 l 0,-56.3789 c 0,-0.005 -0.002,-0.009 -0.002,-0.01368 a 31.720192,31.720192 0 0 0 0.0078,-0.14258 31.720192,31.720192 0 0 0 -31.7207,-31.7206976 z"
       id="rect4153"
       inkscape:connector-curvature="0" />
  </g>
</svg>
