<?xml version="1.0" encoding="UTF-8" standalone="no"?>
<!-- Created with Inkscape (http://www.inkscape.org/) -->

<svg
   xmlns:dc="http://purl.org/dc/elements/1.1/"
   xmlns:cc="http://creativecommons.org/ns#"
   xmlns:rdf="http://www.w3.org/1999/02/22-rdf-syntax-ns#"
   xmlns:svg="http://www.w3.org/2000/svg"
   xmlns="http://www.w3.org/2000/svg"
   xmlns:sodipodi="http://sodipodi.sourceforge.net/DTD/sodipodi-0.dtd"
   xmlns:inkscape="http://www.inkscape.org/namespaces/inkscape"
   width="400mm"
   height="297mm"
   viewBox="0 0 1417.3228 1052.3622"
   id="svg5572"
   version="1.1"
   inkscape:version="0.91 r13725"
   sodipodi:docname="top.svg">
  <defs
     id="defs5574" />
  <sodipodi:namedview
     id="base"
     pagecolor="#ffffff"
     bordercolor="#666666"
     borderopacity="1.0"
     inkscape:pageopacity="0.0"
     inkscape:pageshadow="2"
     inkscape:zoom="0.84446181"
     inkscape:cx="310.62006"
     inkscape:cy="908.91078"
     inkscape:document-units="px"
     inkscape:current-layer="layer1"
     showgrid="false"
     inkscape:window-width="2498"
     inkscape:window-height="1577"
     inkscape:window-x="54"
     inkscape:window-y="176"
     inkscape:window-maximized="1" />
  <metadata
     id="metadata5577">
    <rdf:RDF>
      <cc:Work
         rdf:about="">
        <dc:format>image/svg+xml</dc:format>
        <dc:type
           rdf:resource="http://purl.org/dc/dcmitype/StillImage" />
        <dc:title></dc:title>
      </cc:Work>
    </rdf:RDF>
  </metadata>
  <g
     inkscape:label="Layer 1"
     inkscape:groupmode="layer"
     id="layer1">
    <g
       id="g8085">
      <path
         id="path6126"
         d="m 229.16573,14.20196 a 88.418762,88.418762 0 0 0 -88.41797,88.41797 88.418762,88.418762 0 0 0 0.008,0.24414 l -106.41211,0 c -9.81496,0 -17.71484,7.90184 -17.71484,17.7168 l 0,318.89649 c 0,9.81496 7.89988,17.71679 17.71484,17.71679 l 1062.99225,0 c 9.8149,0 17.7168,-7.90183 17.7168,-17.71679 l 0,-318.89649 c 0,-9.81496 -7.9019,-17.7168 -17.7168,-17.7168 l -106.41413,0 a 88.418762,88.418762 0 0 0 0.012,-0.24414 88.418762,88.418762 0 0 0 -88.4179,-88.41797 88.418762,88.418762 0 0 0 -88.41997,88.41797 88.418762,88.418762 0 0 0 0.008,0.24414 l -496.5293,0 a 88.418762,88.418762 0 0 0 0.0117,-0.24414 88.418762,88.418762 0 0 0 -88.41992,-88.41797 z"
         style="fill:none;fill-opacity:1;stroke:#000000;stroke-width:0.5;stroke-linecap:round;stroke-linejoin:round;stroke-miterlimit:4;stroke-dasharray:none;stroke-opacity:1"
         inkscape:connector-curvature="0" />
      <path
         style="fill:none;fill-opacity:1;stroke:#000000;stroke-width:0.5;stroke-linecap:round;stroke-linejoin:round;stroke-miterlimit:4;stroke-dasharray:none;stroke-opacity:1"
         d="m 52.061,129.52014 1027.5591,0 c 4.9074,0 8.8582,3.95079 8.8582,8.85827 l 0,70.86614 c 0,4.90748 -3.9508,8.85827 -8.8582,8.85827 l -1027.5591,0 c -4.90748,0 -8.85827,-3.95079 -8.85827,-8.85827 l 0,-70.86614 c 0,-4.90748 3.95079,-8.85827 8.85827,-8.85827 z"
         id="rect8050"
         inkscape:connector-curvature="0" />
      <path
         style="fill:none;fill-opacity:1;stroke:#000000;stroke-width:0.5;stroke-linecap:round;stroke-linejoin:round;stroke-miterlimit:4;stroke-dasharray:none;stroke-opacity:1"
         d="m 166.20823,270.95691 177.16536,0 c 4.90748,0 8.85827,3.95079 8.85827,8.85827 l 0,106.29921 c 0,4.90748 -3.95079,8.85827 -8.85827,8.85827 l -177.16536,0 c -4.90748,0 -8.85827,-3.95079 -8.85827,-8.85827 l 0,-106.29921 c 0,-4.90748 3.95079,-8.85827 8.85827,-8.85827 z"
         id="rect8052"
         inkscape:connector-curvature="0" />
      <path
         style="fill:none;fill-opacity:1;stroke:#000000;stroke-width:0.5;stroke-linecap:round;stroke-linejoin:round;stroke-miterlimit:4;stroke-dasharray:none;stroke-opacity:1"
         d="m 478.38032,235.31818 265.74803,0 c 4.90748,0 8.85827,3.95078 8.85827,8.85826 l 0,177.16537 c 0,4.90748 -3.95079,8.85826 -8.85827,8.85826 l -265.74803,0 c -4.90748,0 -8.85827,-3.95078 -8.85827,-8.85826 l 0,-177.16537 c 0,-4.90748 3.95079,-8.85826 8.85827,-8.85826 z"
         id="rect8056"
         inkscape:connector-curvature="0" />
    </g>
  </g>
</svg>
